<svg xmlns="http://www.w3.org/2000/svg" width="48" height="48" viewBox="-4 -3 48 48">
  <path fill-rule="evenodd" clip-rule="evenodd" d="M20 7C12.8 7 7 12.8 7 20s5.8 13 13 13 13-5.8 13-13S27.2 7 20 7zm3.2 23.5v-4c0-.9-.4-1.7-1.2-2.2 3.7-.3 5.5-1.7 5.5-5.2 0-1.3-.4-2.4-1.2-3.4.2-.5.2-.9.2-1.4 0-.7-.2-1.3-.5-1.8-1.3 0-2.1.4-3.4 1.3-.8-.2-1.7-.3-2.6-.3-1 0-2 .1-2.9.3-1.3-.9-2.1-1.4-3.4-1.4-.3.6-.5 1.2-.5 1.8 0 .5.1.9.2 1.4-.8.9-1.2 2-1.2 3.4 0 3.5 1.8 4.9 5.5 5.2-.5.4-.9.9-1.1 1.5-.2.2-.6.3-1.1.3-.4 0-.7-.1-.9-.3-.6-.3-.9-.8-1.2-1.3-.4-.5-.9-.8-1.5-.8-.3 0-.5.1-.5.2s.1.2.2.3c.1.1.3.3.5.4.2.2.3.3.4.3.2.3.4.6.6 1.1.5 1.1 1.4 1.7 2.6 1.7.2 0 .6 0 1.2-.1v3C12.3 29.1 9 24.9 9 20c0-6.1 4.9-11 11-11s11 4.9 11 11c0 4.9-3.3 9.1-7.8 10.5z"></path>
</svg>
