<svg xmlns="http://www.w3.org/2000/svg" width="48" height="48"><path fill-rule="nonzero" d="M34.915 11H13.22C12.036 11 11 11.853 11 13.024v21.742c0 1.178 1.036 2.227 2.22 2.227h21.688c1.191 0 2.085-1.056 2.085-2.227V13.024C37 11.854 36.1 11 34.915 11zM19.057 32.667h-3.724V21.089h3.724v11.578zm-1.733-13.339h-.027c-1.192 0-1.964-.887-1.964-1.997 0-1.131.793-1.998 2.011-1.998 1.219 0 1.964.86 1.99 1.998 0 1.11-.771 1.997-2.01 1.997zm15.343 13.339h-3.724v-6.331c0-1.517-.542-2.553-1.89-2.553-1.029 0-1.638.698-1.909 1.375-.101.244-.128.575-.128.914v6.595h-3.724V21.089h3.724V22.7c.541-.772 1.388-1.882 3.358-1.882 2.444 0 4.293 1.611 4.293 5.085v6.764z"/></svg>
