<svg xmlns="http://www.w3.org/2000/svg" width="500" height="500" viewBox="0 0 500 500"><g fill="none"><path fill="#E6E6E6" d="M500 250c0 138.071-111.929 250-250 250-118.36 0-217.5-82.24-243.39-192.71A250.13 250.13 0 0 1 0 250a247 247 0 0 1 3.49-41.67C23.31 90.08 126.12 0 250 0c138.07 0 250 111.93 250 250z"/><path fill="#FF6B6B" d="M20.83 489.58H479.15999999999997V500H20.83z"/><path fill="#4D4D4D" d="M20.83 484.38H479.15999999999997V489.59H20.83z"/><path fill="#4D4D4D" d="M105.68 234.55l-4.41-2.77c2.71-4.31 67.36-105.48 152-105.48 84.39 0 156.27 83.5 157 84.35l-4 3.37c-.7-.83-71.05-82.51-153-82.51-81.74 0-146.94 102.01-147.59 103.04z"/><path fill="#FF6B6B" d="M402.78 244.05s-.57 1.42-1.79 4c-1.22 2.58-42.48 105.28-151.94 105.28-110.16 0-150.33-102.69-151.54-105.27-1.21-2.58-1.75-4-1.75-4l3.1 3.06c2 2 5.06 4.81 8.88 8.38 3.82 3.57 8.63 7.72 14.11 12.4 2.76 2.32 5.72 4.74 8.89 7.22a24.91 24.91 0 0 1 4.34 4.3c1.39 1.56 2.94 3 4.48 4.56 12.43 12.13 28 25.34 46.67 35.9a146.74 146.74 0 0 0 29.95 13 110.56 110.56 0 0 0 32.74 4.86 113.25 113.25 0 0 0 32.73-5.29 154.35 154.35 0 0 0 29.94-13.17c18.65-10.62 34.34-23.73 46.88-35.77 1.56-1.52 3.13-3 4.49-4.56a27.37 27.37 0 0 1 4.39-4.26c3.18-2.46 6.15-4.88 8.93-7.17 5.56-4.59 10.39-8.72 14.3-12.2 3.91-3.48 7-6.28 9-8.23l3.2-3.04z"/><path fill="#FFF" d="M400.55 242.81s-68.23 96.45-152.39 96.45c-84.16 0-152.39-96.45-152.39-96.45s68.23-96.45 152.39-96.45c84.16 0 152.39 96.45 152.39 96.45z"/><path fill="#4D4D4D" d="M248.16 341.86c-84.53 0-153.83-96.58-154.52-97.55l-1.06-1.5 1.06-1.5c.69-1 70-97.55 154.52-97.55 84.52 0 153.84 96.57 154.51 97.54l1.06 1.5-1.06 1.5c-.67.99-69.98 97.56-154.51 97.56zM99 242.81c9.1 12.19 73 93.85 149.16 93.85S388.21 255 397.32 242.81C388.21 230.63 324.26 149 248.16 149S108.1 230.63 99 242.81z"/><circle cx="250" cy="241.36" r="78.13" fill="#FFF"/><path fill="#4D4D4D" d="M250 322.09c-44.586 0-80.73-36.144-80.73-80.73 0-44.586 36.144-80.73 80.73-80.73 44.586 0 80.73 36.144 80.73 80.73-.05 44.565-36.165 80.68-80.73 80.73zm0-156.25c-41.709 0-75.52 33.811-75.52 75.52 0 41.709 33.811 75.52 75.52 75.52 41.709 0 75.52-33.811 75.52-75.52-.05-41.688-33.832-75.47-75.52-75.52z"/><path fill="#FF6B6B" d="M257.81 236.24L263.3 219c-11.292-6.715-25.816-3.986-33.9 6.37-8.085 10.356-7.208 25.108 2.047 34.433 9.254 9.325 23.999 10.314 34.416 2.308 10.417-8.006 13.256-22.508 6.627-33.851l-14.68 7.98z"/><path fill="#FF6B6B" d="M248.16 158.52c-76 0-148.44 82.92-148.44 82.92 2.7-3.81 67-93.34 148.44-93.34s145.74 89.53 148.44 93.34c-.01.01-72.46-82.92-148.44-82.92z"/><path fill="#FFF" d="M72.92 415.93h-5.21V396h5.21v19.93zm0-42.29h-5.21v-29.85h5.21v29.85zm0-52.24h-5.21v-29.85h5.21v29.85zm0-52.24h-5.21v-29.85h5.21v29.85zm0-52.24h-5.21v-29.85h5.21v29.85zm0-52.24h-5.21v-29.85h5.21v29.85zm0-52.24h-5.21V82.59h5.21v29.85zm356.77 303.49h-5.21V396h5.21v19.93zm0-42.29h-5.21v-29.85h5.21v29.85zm0-52.24h-5.21v-29.85h5.21v29.85zm0-52.24h-5.21v-29.85h5.21v29.85zm0-52.24h-5.21v-29.85h5.21v29.85zm0-52.24h-5.21v-29.85h5.21v29.85zm0-52.24h-5.21V82.59h5.21v29.85zm20.83 276.14h-31.25v-5.21h31.25v5.21zm-59.9 0h-31.24v-5.21h31.25v5.21h-.01zm-59.9 0h-31.24v-5.21h31.25v5.21h-.01zm-59.9 0h-31.24v-5.21h31.25v5.21h-.01zm-59.9 0h-31.23v-5.21h31.25v5.21h-.02zm-59.9 0h-31.23v-5.21H151v5.21h.02zm-59.9 0H59.9v-5.21h31.25v5.21h-.03z"/><path fill="#FFF" d="M442.71 99.52h-23.44v-5.21h23.44v5.21zm-52.08 0h-31.25v-5.21h31.25v5.21zm-59.9 0h-31.25v-5.21h31.25v5.21zm-59.9 0h-31.25v-5.21h31.25v5.21zm-59.9 0h-31.24v-5.21h31.25v5.21h-.01zm-59.9 0h-31.24v-5.21H151v5.21h.03zm-59.9 0H59.9v-5.21h31.25v5.21h-.02z"/><path fill="#FF6B6B" d="M497.53 268.21a12.6 12.6 0 0 0-5.37-8.64l-21.64-14.49a12.6 12.6 0 0 0-10-1.68 14 14 0 0 0-8.34 5.73l-99.82 149.1-.28.43L341 453.35a5.21 5.21 0 0 0 8 5.36l46.35-31.08L495.43 278.1a14 14 0 0 0 2.1-9.89z"/><path fill="#FFF" d="M482.9 253.92l-21.64-14.49c-4.78-3.2-11.59-1.41-14.76 3.33l-99.82 149.1L335.7 446a2.6 2.6 0 0 0 4 2.68l45.92-30.79 99.82-149.1c3.17-4.67 2.22-11.68-2.54-14.87z"/><path fill="#4D4D4D" d="M338.26 451.78a5.22 5.22 0 0 1-5.11-6.24l11.08-54.69.28-.43 99.82-149.1a14 14 0 0 1 8.34-5.73 12.6 12.6 0 0 1 10 1.68l21.64 14.49a12.6 12.6 0 0 1 5.37 8.64 14 14 0 0 1-2.1 9.89L387.5 419.82l-46.35 31.08a5.2 5.2 0 0 1-2.89.88zm10.87-58.9l-10.87 53.68 45.49-30.5 99.54-148.67a8.72 8.72 0 0 0 1.29-6.17 7.45 7.45 0 0 0-3.12-5.13l-21.65-14.49a7.43 7.43 0 0 0-5.93-.94 8.73 8.73 0 0 0-5.22 3.56l-99.53 148.66z"/><path fill="#FF6B6B" transform="rotate(-56.2 456.134 270.452)" d="M453.529 249.617H458.739V291.287H453.529z"/><path fill="#FF6B6B" transform="rotate(-56.2 367.759 402.456)" d="M365.154 381.621H370.364V423.291H365.154z"/><path fill="#FF6B6B" transform="rotate(-56.21 404.737 333.192)" d="M324.007 330.587H485.467V335.79699999999997H324.007z"/><path fill="#FF6B6B" transform="rotate(-56.21 417.723 341.899)" d="M336.993 339.294H498.453V344.50399999999996H336.993z"/><path fill="#FF6B6B" d="M360.13 431.84L343.42 420.52 338.13 446.75z"/></g></svg>