<svg xmlns="http://www.w3.org/2000/svg" width="500" height="500" viewBox="0 0 500 500"><g fill="none"><path fill="#E4E6E6" d="M500 250c0 138.071-111.929 250-250 250-118.36 0-217.5-82.24-243.39-192.71A250.13 250.13 0 0 1 0 250a247 247 0 0 1 3.49-41.67C23.31 90.08 126.12 0 250 0c138.07 0 250 111.93 250 250z"/><path fill="#4D4D4D" d="M26.04 484.38H473.96000000000004V489.59H26.04z"/><path fill="#FF6B6B" d="M26.04 489.58H473.96000000000004V500H26.04z"/><path fill="#FFF" d="M414.06 255.49v210.29H85.94V255.49c0-5.39 4-8.46 9.38-8.46H405c5.36-.03 9.06 3.07 9.06 8.46z"/><path fill="#4D4D4D" d="M416.67 468.38H83.33V255.49c0-6.62 4.81-11.07 12-11.07H405c7 0 11.67 4.45 11.67 11.07v212.89zm-328.13-5.21h322.92V255.49c0-5.1-4-5.86-6.46-5.86H95.31c-1.59 0-6.77.42-6.77 5.86v207.68z"/><path fill="#FFF" d="M106.77 265.25H393.22999999999996V429.31H106.77z"/><path fill="#4D4D4D" d="M395.83 431.92H104.17V262.65h291.66v169.27zm-286.46-5.21h281.26V267.86H109.38v158.85h-.01z"/><path fill="#FF6B6B" d="M109.38 267.86H390.63V273.07H109.38z"/><path fill="#FF6B6B" d="M411.46 442.34V471H88.54v-28.66h137.11a5.2 5.2 0 0 1 4.82 3.28l2.6 6.46a5.2 5.2 0 0 0 4.82 3.28h24.22a5.2 5.2 0 0 0 4.82-3.28l2.6-6.46a5.2 5.2 0 0 1 4.82-3.28h137.11z"/><path fill="#FFF" d="M439.67 450.15h-160.1a5.21 5.21 0 0 0-4.84 3.27l-2.59 6.47a5.21 5.21 0 0 1-4.84 3.27h-34.61a5.21 5.21 0 0 1-4.84-3.27l-2.59-6.47a5.21 5.21 0 0 0-4.84-3.27H60.65c-3.52 0-6.33 2.15-5.72 5.65 3.13 18.09 18.77 30.81 37.58 30.81H407.8c18.82 0 34.45-12.72 37.58-30.81.62-3.5-2.19-5.65-5.71-5.65z"/><path fill="#4D4D4D" d="M407.8 489.21H92.51c-20.28 0-36.79-13.56-40.15-33a7 7 0 0 1 1.48-5.84 8.78 8.78 0 0 1 6.81-2.86h159.78a7.78 7.78 0 0 1 7.26 4.91l2.59 6.48a2.59 2.59 0 0 0 2.42 1.64h34.61a2.59 2.59 0 0 0 2.42-1.64l2.59-6.47a7.78 7.78 0 0 1 7.26-4.91h160.1a8.79 8.79 0 0 1 6.81 2.86 7 7 0 0 1 1.48 5.84c-3.38 19.44-19.89 32.99-40.17 32.99zM60.65 452.75a3.73 3.73 0 0 0-2.82 1 1.85 1.85 0 0 0-.33 1.59c2.92 16.87 17.32 28.65 35 28.65h315.3c17.7 0 32.1-11.78 35-28.65a1.85 1.85 0 0 0-.33-1.59 3.72 3.72 0 0 0-2.82-1H279.57a2.59 2.59 0 0 0-2.42 1.64l-2.59 6.47a7.78 7.78 0 0 1-7.26 4.91h-34.61a7.78 7.78 0 0 1-7.26-4.91l-2.59-6.48a2.59 2.59 0 0 0-2.42-1.64H60.65v.01z"/><path fill="#FF6B6B" d="M109.38 421.5H390.63V426.71H109.38z"/><path fill="#4AC6C6" d="M148.44 416.3H351.57V426.72H148.44z"/><path fill="#FF6B6B" d="M122.4 249.63L135.97 426.71 364.03 426.71 377.6 249.63z"/><path fill="#FFF" d="M145.93 153.28h208.14a4 4 0 0 1 4 4v272H141.93v-272a4 4 0 0 1 4-4z"/><path fill="#4D4D4D" d="M360.68 431.92H139.32V163.69c0-7.18 5.82-13 13-13h195.34c7.18 0 13 5.82 13 13v268.23h.02zm-216.15-5.21h210.94v-263a7.82 7.82 0 0 0-7.81-7.81H152.34a7.82 7.82 0 0 0-7.81 7.81v263z"/><path fill="#4D4D4D" d="M186.63 188.87H191.84V410.22H186.63z"/><path fill="#A3ADC5" d="M329.43 208H311.2v-5.21h18.23V208zM293 208h-78.16v-5.21H293V208zm36.43 28.61H319v-5.21h10.42v5.21h.01zm-20.83 0h-41.67v-5.21h41.67v5.21zm-52.08 0h-41.68v-5.21h41.67v5.21h.01zm72.91 28.64h-31.25V260h31.25v5.25zm-41.67 0h-31.25V260h31.25v5.25zm-41.67 0h-31.25V260h31.25v5.25zm83.34 28.65H251.3v-5.21h78.13v5.21zm-88.54 0h-26v-5.21h26v5.21zm88.54 28.65H313.8v-5.21h15.63v5.21zm-26 0h-88.59v-5.21h88.54v5.21h.05zm26 28.64h-31.25V346h31.25v5.21-.02zm-41.67 0h-31.25V346h31.25v5.21-.02zm-41.67 0h-31.25V346h31.25v5.21-.02zm83.34 28.65H319v-5.21h10.42v5.21h.01zm-20.83 0h-41.67v-5.21h41.67v5.21zm-52.08 0h-41.68v-5.21h41.67v5.21h.01z"/><path fill="#FF6B6B" d="M158.85 202.75H174.48V207.96H158.85z"/><path fill="#FF6B6B" d="M158.85 231.4H174.48V236.61H158.85z"/><path fill="#FF6B6B" d="M158.85 260.05H174.48V265.26H158.85z"/><path fill="#FF6B6B" d="M158.85 288.69H174.48V293.9H158.85z"/><path fill="#FF6B6B" d="M158.85 317.34H174.48V322.54999999999995H158.85z"/><path fill="#FF6B6B" d="M158.85 345.98H174.48V351.19H158.85z"/><path fill="#FF6B6B" d="M158.85 374.63H174.48V379.84H158.85z"/><path fill="#FF6B6B" d="M165.36 87.76L208.6 62.13 208.6 76.4 185.35 90.67 208.61 104.34 208.61 119.42 165.37 94.29 165.37 87.76z"/><path fill="#FF6B6B" d="M278.58 62.13L236.79 119.42 221.62 119.42 263.31 62.13z"/><path fill="#FF6B6B" d="M334.64 94.29L291.4 119.42 291.4 104.34 314.66 90.67 291.4 76.4 291.4 62.13 334.64 87.76 334.64 94.29z"/><circle cx="42.97" cy="201.45" r="7.81" fill="#FFF"/><circle cx="71.61" cy="201.45" r="7.81" fill="#FFF"/><circle cx="100.26" cy="201.45" r="7.81" fill="#FFF"/><circle cx="397.14" cy="201.45" r="7.81" fill="#FFF"/><circle cx="425.78" cy="201.45" r="7.81" fill="#FFF"/><circle cx="454.43" cy="201.45" r="7.81" fill="#FFF"/></g></svg>