<svg xmlns="http://www.w3.org/2000/svg" width="500" height="500" viewBox="0 0 500 500"><g fill="none"><path fill="#E6E6E6" d="M500 250.3a251.07 251.07 0 0 1-64 166.47c-5.25 5.85-10.85 11.47-16.62 16.78a249 249 0 0 1-52.57 37.35 233.68 233.68 0 0 1-23 10.74c-3.17 1.3-6.4 2.55-9.62 3.69-76.512 27.551-161.649 16.105-228.167-30.676C39.504 407.873-.057 331.62 0 250.3a246.65 246.65 0 0 1 3.49-41.62c.23-1.46.49-2.91.78-4.34.49-2.73 1-5.46 1.66-8.14C30.61 84.27 130.36.6 249.7.6 364 .6 461 77.41 490.61 182.26c1.09 3.82 1 7.73 3.59 11.63 2.6 18.11 5.8 37.01 5.8 56.41z"/><path fill="#FFF" d="M202.27 44.66c-22.359-8.84-47.867-1.625-62.284 17.615-14.417 19.24-14.178 45.748.584 64.725l-12.17 12.27-3.4-3.4-42 42.32c-4.349 4.373-4.349 11.437 0 15.81a11 11 0 0 0 15.69 0l42-42.31-2.91-2.93L150 136.4a53.3 53.3 0 1 0 52.27-91.74zm-19.72 91.46a41.91 41.91 0 1 1 41.89-41.89c-.006 23.133-18.757 41.884-41.89 41.89z"/><path fill="#FFF" d="M493 193.88l-68.25-81.31-54 59.59-65.62-133.51-66.41 162.85-55.63-106.67-55.85 198.59-81-123.73-42 34.65c.49-2.73 1-5.46 1.66-8.14L47.39 162l78 119.05 56.24-200.26 56.52 108.33L304.69 26 372 163l52.88-58.32L490 182.26c1.1 3.82 2.09 7.74 3 11.62z"/><circle cx="109.24" cy="381.72" r="20.81" fill="#FFF"/><path fill="#FFF" d="M145.66 467.17v10.77c-18.21-9.23-39.38-21.12-56.42-35.22 4.34-8.35 7-18.16 7-25v-32.53h23.41v32.51c0 12.41 8.71 34.46 20.34 40.21a10.28 10.28 0 0 1 5.67 9.26z"/><circle cx="404.46" cy="381.72" r="20.81" fill="#FFF"/><path fill="#FFF" d="M419.26 433.54a248.67 248.67 0 0 1-52.52 37.35v-3.72a10.28 10.28 0 0 1 5.67-9.26c11.63-5.75 20.34-27.81 20.34-40.21v-32.51h23.41v32.51a51.38 51.38 0 0 0 3.1 15.84z"/><circle cx="306.06" cy="381.72" r="20.81" fill="#FFF"/><path fill="#FFF" d="M317.76 417.7v-33.81h-23.41v33.81c0 12.42-8.7 34.47-20.34 40.22a10.28 10.28 0 0 0-5.67 9.25v18.16h75.43v-18.16a10.28 10.28 0 0 0-5.67-9.25c-11.64-5.75-20.34-27.8-20.34-40.22z"/><circle cx="207.65" cy="381.72" r="20.81" fill="#FFF"/><path fill="#FFF" d="M219.36 417.7v-33.81h-23.41v33.81c0 12.42-8.7 34.47-20.34 40.22a10.28 10.28 0 0 0-5.67 9.25v18.16h75.43v-18.16a10.28 10.28 0 0 0-5.67-9.25c-11.64-5.75-20.34-27.8-20.34-40.22z"/><path fill="#4D4D4D" d="M7.8 484.03H491.6V489.22999999999996H7.8z"/><path fill="#FF6B6B" d="M7.8 489.23H491.6V499.63H7.8z"/><path fill="#FFF" d="M450 233.83v75.92h-20.75c-6.76 0-24.74 4.4-31.37 5.72-37.85 7.54-61.2.73-73-5.07a43.94 43.94 0 0 1-9-5.62c-.31-.26-.47-.42-.47-.42l-12-10.14-4.4-3.72-17.08-14.5-7-5.88-.08-.08-1.38-1.17L248 247.26l-7.44-6.32c-14.83 2-25.2-10.9-14.07-21.46 12.69-12 31.26-21.22 42.61-24.27 7.23-2 14.75-3.77 22.24-5.31 22.42-4.65 44.66-6.9 57.8-2.9 18.39 5.64 60.45 40.68 74.13 42.5 3.12.42 7.13 1 11.11 1.69 7.9 1.29 15.62 2.64 15.62 2.64z"/><path fill="#4D4D4D" d="M366.08 321.45c-19.58 0-33.35-4.28-42.36-8.7a46 46 0 0 1-9.57-6c-.41-.34-.63-.57-.63-.57l-40.24-34.09-.21-.2-33.35-28.27c-8.54.75-16.21-2.87-19.27-9.26-2.63-5.5-1.05-11.78 4.23-16.8 12.74-12.06 31.64-21.65 43.72-24.89 7.72-2.09 15.26-3.88 22.39-5.34 18.55-3.85 43.87-7.46 59.1-2.83 9.34 2.87 24.13 12.74 38.44 22.3 14.31 9.56 28.86 19.26 35.27 20.12 3.14.42 7.17 1 11.18 1.7 7.92 1.28 15.64 2.63 15.64 2.63a2.6 2.6 0 0 1 2.15 2.56v75.93a2.6 2.6 0 0 1-2.6 2.6h-20.72c-4.93 0-16.83 2.62-24.71 4.35-2.47.54-4.61 1-6.15 1.32a165.44 165.44 0 0 1-32.31 3.44zm-125.53-83.12c.616 0 1.212.22 1.68.62l34.33 29.11.2.19 40.29 34.14c.19.17.28.26.45.4a41.16 41.16 0 0 0 8.5 5.28c10.33 5.07 33.31 12.45 71.36 4.86 1.51-.3 3.62-.77 6-1.3 8.58-1.89 20.34-4.47 25.83-4.47h18.13V236c-2.83-.49-8.08-1.38-13.42-2.25-4-.65-7.94-1.27-11-1.68-7.61-1-22.12-10.7-37.47-20.95-14-9.34-28.47-19-37.08-21.65-11.21-3.41-30.76-2.4-56.53 2.95-7 1.44-14.46 3.21-22.09 5.27-11.46 3.07-29.39 12.18-41.49 23.65-3.67 3.48-4.78 7.31-3.12 10.78 1.79 3.73 7.26 7.27 15.05 6.22l.38-.01z"/><path fill="#FF6B6B" d="M324.87 310.41a43.94 43.94 0 0 1-9-5.62c-.31-.26-.47-.42-.47-.42l-12-10.14-4.4-3.72L281.93 276l-7-5.88-.08-.08-1.38-1.17L291.6 266a22 22 0 0 1 6-.1c7.91.94 14.07 6.16 15.29 13l.05.21a14.92 14.92 0 0 1-3.75 12.64c8.09-1 15.55 3.75 16.83 10.77a12.42 12.42 0 0 1-1.15 7.89z"/><path fill="#FFF" d="M291.32 260.5a16.08 16.08 0 0 1-11 8.69c-.55.13-1.09.26-1.64.34l-3.72.6-13.96 2.23-3.75.6c-8.79 1.4-17-3.46-18.31-10.82l-.05-.26c-1.12-6.06 2.76-11.94 9.05-14.62a18.76 18.76 0 0 1 4.45-1.3l21.38-3.41c7.7-1.22 15 2.34 17.51 8.22.375.83.647 1.704.81 2.6l.05.26a11.87 11.87 0 0 1-.82 6.87z"/><path fill="#4D4D4D" d="M254.29 275.79c-8.8 0-16.47-5.44-17.87-13.2v-.23c-1.31-7.1 3-14.3 10.58-17.51a21.56 21.56 0 0 1 5-1.47l21.4-3.38c8.72-1.38 17.25 2.72 20.3 9.75a13.74 13.74 0 0 1 1 3.2v.17a14.57 14.57 0 0 1-1 8.44 18.72 18.72 0 0 1-12.75 10.17c-.66.16-1.28.3-1.9.39l-21.34 3.42a21.41 21.41 0 0 1-3.42.25zm22.54-30.88a16.9 16.9 0 0 0-2.61.21l-21.38 3.41a16.35 16.35 0 0 0-3.82 1.12c-5.3 2.26-8.39 7.09-7.53 11.76v.24c1.08 6 8 9.93 15.35 8.75l21.42-3.4c.51-.07 1-.19 1.45-.3a13.49 13.49 0 0 0 9.22-7.21 9.22 9.22 0 0 0 .68-5.37v-.18a8.84 8.84 0 0 0-.64-2.08c-1.87-4.27-6.73-6.95-12.14-6.95z"/><path fill="#FF6B6B" d="M455.18 236.75v70.41h-15.6v-72.83c7.9 1.17 15.6 2.42 15.6 2.42z"/><path fill="#FFF" d="M456.32 218.72a6.34 6.34 0 0 0-6.34 6.34v94a6.34 6.34 0 0 0 6.34 6.34h43.08V218.72h-43.08z"/><path fill="#4D4D4D" d="M499.4 328h-43.08a9 9 0 0 1-8.94-8.94v-94a9 9 0 0 1 8.94-8.94h43.08v5.2h-43.08a3.74 3.74 0 0 0-3.74 3.74v94a3.74 3.74 0 0 0 3.74 3.74h43.08v5.2z"/><path fill="#FFF" d="M305 315.86c7-1.12 11.79-6.78 10.73-12.64v-.21c-1.06-5.87-7.59-9.72-14.58-8.6l-17 2.72c-7 1.12-11.79 6.78-10.73 12.64v.21c1.06 5.87 7.59 9.72 14.58 8.6l17-2.72z"/><path fill="#4D4D4D" d="M285.57 321.37c-7.26 0-13.58-4.5-14.75-10.93a12.35 12.35 0 0 1 2.13-9.49 16.22 16.22 0 0 1 10.71-6.39l17-2.72c8.36-1.32 16.24 3.47 17.55 10.71a12.33 12.33 0 0 1-2.13 9.49 16.22 16.22 0 0 1-10.71 6.39l-17 2.72a17.59 17.59 0 0 1-2.8.22zm17.93-24.56a12.93 12.93 0 0 0-2 .16l-17 2.72a11 11 0 0 0-7.3 4.31 7 7 0 0 0-1.3 5.35c.85 4.69 6.06 7.61 11.64 6.71l17-2.72a11 11 0 0 0 7.29-4.26 7 7 0 0 0 1.3-5.35c-.74-4.17-4.85-6.92-9.63-6.92z"/><path fill="#FFF" d="M299 290.51a17.56 17.56 0 0 1-9.94 5L267.7 299a18 18 0 0 1-8.22-.52c-5.2-1.53-9.21-5.36-10.09-10.3l-.05-.26c-1.25-6.87 3.9-13.53 11.7-15.53.59-.16 1.187-.29 1.79-.39l12-1.92 5.44-.86 3.9-.62a18.8 18.8 0 0 1 5.25-.1c6.58.78 12 5 13.06 10.92l.05.26a12.41 12.41 0 0 1-3.53 10.83z"/><path fill="#4D4D4D" d="M264.67 301.81a20.16 20.16 0 0 1-6-.88c-6.29-1.86-10.86-6.58-11.88-12.33v-.22c-1.5-8.21 4.36-16.17 13.61-18.54a20.21 20.21 0 0 1 2-.44l21.4-3.4a21.51 21.51 0 0 1 6-.12c7.9.93 14.05 6.18 15.3 13v.2a15 15 0 0 1-4.24 13.2 20.23 20.23 0 0 1-11.4 5.78l-21.38 3.43a21.57 21.57 0 0 1-3.41.32zm22.56-30.89a16.6 16.6 0 0 0-2.6.21l-21.38 3.41a15 15 0 0 0-1.51.33c-6.62 1.7-10.83 7.09-9.84 12.56v.23c.69 3.83 3.85 7 8.28 8.3 2.291.689 4.71.84 7.07.44l21.42-3.4a15 15 0 0 0 8.47-4.25 9.85 9.85 0 0 0 2.88-8.6v-.2c-.84-4.66-5.18-8.2-10.81-8.86a15.94 15.94 0 0 0-1.98-.17z"/><path fill="#FFF" d="M279.49 234c7.93 12 18.31 35.61 18.13 57.58 3.91-9.26 7.83-40.79-2.58-65.43-9.86-23.33-42.73-54.22-76.55-54.22v18.89c18.21 1.41 44.3 17.84 61 43.18z"/><path fill="#4D4D4D" d="M294.91 304.65l.09-13.12c.16-19.89-9.06-43-17.7-56.13-17.06-25.87-42.61-40.72-59-42l-2.4-.19V169.3h2.6c35.64 0 69.3 33 78.94 55.81 11.07 26.18 6.4 58.42 2.58 67.45l-5.11 12.09zm-73.82-116.18c17.67 2.54 43.38 18 60.57 44.07a125.67 125.67 0 0 1 16.87 41.89c1.33-13.27.74-31.61-5.89-47.29-8.86-21-39.1-51-71.55-52.57v13.9z"/><path fill="#FFF" d="M308.45 380h-9.55a5 5 0 0 1-4.8-6.65c3.33-9.58 4.66-23.34-5.23-39.08-6.77-10.78 2.38-27.5 6.48-39.94 8.3-25.21-4.65-49.13-14.09-62.31-14.43-20.15-36.58-36.56-53-40.64a20.61 20.61 0 0 0-13 1.06c-5 2.12-18.06 9.16-19.48 11.16-2.1 3-2.53 7.43-1.32 13.62-7 6.28-36.93 41.86-36.93 41.86l17.09 12.76a10.34 10.34 0 0 0 9.1 1.65c7.84-2.3 22.58-6.6 26.21-7.53 2.86 2.33 8.29 4.14 13.81 5.22a5.21 5.21 0 0 1 2.45 9c-21.48 19.5-49.26 53.14-37.71 89.77 0 .93.05 2.57 0 5.25a4.88 4.88 0 0 1-4.88 4.85h-13.46c-6.333.016-11.464 5.147-11.48 11.48V406h161.27v-14.53c-.022-6.33-5.15-11.454-11.48-11.47z"/><path fill="#4D4D4D" d="M322.53 408.6H156.06v-17.13c.011-7.772 6.308-14.069 14.08-14.08h13.48a2.28 2.28 0 0 0 2.28-2.27v-4.79c-11.41-36.86 14.64-70.44 38.55-92.14a2.59 2.59 0 0 0 .75-2.65 2.49 2.49 0 0 0-2-1.83c-3.54-.7-9.76-2.22-13.84-4.95-3.65 1-12.36 3.5-24.95 7.19a13 13 0 0 1-11.41-2.06l-19.3-14.4 1.77-2.11c1.17-1.39 27.58-32.79 36.11-41.11-1-6.21-.35-10.86 2-14.19 2.12-3 17-10.54 20.59-12a23.07 23.07 0 0 1 14.64-1.19c17.67 4.39 40.07 21.52 54.49 41.65 11.16 15.59 22.73 39.45 14.45 64.63-.84 2.55-1.86 5.21-2.94 8-4 10.41-8.53 22.2-3.81 29.72 8.48 13.49 10.33 27.39 5.49 41.32a2.35 2.35 0 0 0 .32 2.15 2.47 2.47 0 0 0 2 1h9.55c7.772.011 14.069 6.308 14.08 14.08v17.16h.09zm-161.27-5.2h156.07v-11.93a8.89 8.89 0 0 0-8.88-8.88h-9.55a7.71 7.71 0 0 1-6.27-3.24 7.49 7.49 0 0 1-1-6.87c4.29-12.36 2.62-24.75-5-36.84-6.11-9.72-1.08-22.81 3.35-34.35 1.06-2.76 2.05-5.36 2.86-7.79 7.61-23.11-3.27-45.37-13.73-60-13.55-18.91-35.21-35.58-51.52-39.63a17.93 17.93 0 0 0-11.36.93c-5.54 2.34-17.07 8.81-18.41 10.33-1.6 2.26-1.9 6.17-.84 11.55l.28 1.45-1.1 1c-5.83 5.21-28.37 31.76-34.89 39.49l14.88 11.11A7.79 7.79 0 0 0 183 271c10.12-3 22.9-6.68 26.29-7.55l1.27-.33 1 .83c2.23 1.82 7 3.57 12.67 4.69a7.71 7.71 0 0 1 6 5.54 7.79 7.79 0 0 1-2.27 7.9c-22.86 20.74-47.82 52.69-37 87.06l.12.66c0 1 .06 2.64 0 5.39a7.5 7.5 0 0 1-7.48 7.44h-13.45a8.89 8.89 0 0 0-8.88 8.88v11.89h-.01z"/><path fill="#FF6B6B" d="M252.3 214.39c-14.63 4.58-37.72 35.55 2.86 46.34 20.91 5.46 61-.35 64.12 5.07 33.22 32.48 57.43 17.52 57.43 17.52s-30.15-34.52-42-55.54c-4-7.16 12.47-10.46 8.15-13.39-12.09-8.24-69.1-6.72-90.56 0z"/><path fill="#FFF" d="M344 216.86c-38-9.29-88.84 5.83-93.52 8.17-8 4-16.24 19.94 9.66 28.08 20.08 5 59.29-1.58 62.15 3.71 24.53 23.76 40.14 24.31 58.35 25.82L344 216.86z"/><path fill="#4D4D4D" d="M380.63 285.25h-.22l-1.73-.14c-17.38-1.41-33.8-2.75-58.21-26.4a2.41 2.41 0 0 1-.37-.44c-2-1.37-13.15-1.06-22.09-.81-13.15.36-28 .78-38.5-1.8-15.35-4.82-19-12.12-19.47-17.4-.55-6.88 4.25-13 9.27-15.54 3.59-1.8 55.15-18.18 95.3-8.37a2.6 2.6 0 0 1-1.23 5.05c-38-9.28-88.43 6.32-91.74 8-3.31 1.68-6.76 6.1-6.41 10.47.42 5.21 6 9.76 15.69 12.8 9.62 2.38 24.14 2 37 1.61 16.37-.45 24-.52 26.44 2.93 22.95 22.15 37.71 23.35 54.79 24.74l1.75.14a2.6 2.6 0 0 1-.27 5.16z"/></g></svg>