<svg xmlns="http://www.w3.org/2000/svg" width="520" height="520" viewBox="0 0 520 520"><g fill="none" fill-rule="evenodd"><path fill="#FFF" fill-rule="nonzero" d="M0 0L520 0 520 520 0 520z"/><g transform="translate(134 111)"><path fill="#FF6B6B" d="M128.76 116.056L55.825 292.56h154.32l-72.024-176.484c-1.71-4.19-7.635-4.2-9.363-.02"/><path fill="#FFF" d="M125.97 213.68L94.043 292.56 158.383 292.56 125.971 213.68z"/><path fill="#748699" d="M132.802 13.1l31.164 3.41v5.657c0 1.46.956 2.745 2.353 3.165l28.876 8.686c.816.245.755 1.42-.08 1.58l-35.018 6.7-13.662-8.91-13.634-.323V13.1h.001zm29.451 279.46l-30.024-73.07c-.517-1.256-2.3-1.25-2.808.008l-29.574 73.06 62.406.002z"/><path fill="#404041" d="M246.89 287.83h-10.08a4.731 4.731 0 0 0 0 9.46h10.282a4.73 4.73 0 0 0 4.708-5.194c-.234-2.46-2.44-4.266-4.91-4.266M107.116 140.21h-.722a4.397 4.397 0 0 0-4.07 2.733c-1.18 2.89.947 6.057 4.07 6.057h.722a4.395 4.395 0 0 0 4.07-2.734c1.18-2.89-.947-6.057-4.07-6.057"/><path fill="#404041" d="M160.82 287.83l-4.115-10.08a2.84 2.84 0 0 0-2.628-1.764c-2.016 0-3.39 2.044-2.627 3.91l3.24 7.934H97.31L126 217.567l22.412 54.895a2.838 2.838 0 0 0 2.628 1.765c2.017 0 3.39-2.044 2.627-3.91l-24.832-60.814v-92.567l69.778 170.894H160.82zM128.838 10.57l37.37 4.925v6.5c0 1.244.808 2.343 1.996 2.71l25.28 7.84L155.637 39l-.313-6.268a2.838 2.838 0 0 0-2.733-2.693l-23.752-.85v-18.62l-.001.001zm92.45 277.26h-12.454L131.11 97.47l8.87-21.726c.855-2.09.21-4.572-1.67-5.823a4.735 4.735 0 0 0-7.04 2.13l-2.432 5.956V34.87l20.947.748.343 6.858a2.837 2.837 0 0 0 3.311 2.655l52.54-8.96c1.14-.196 2.14-.99 2.424-2.11a2.84 2.84 0 0 0-1.907-3.425l-34.614-10.733v-6.897a2.838 2.838 0 0 0-2.467-2.813l-40.578-5.35V3.708c0-1.485-1.067-2.837-2.545-2.986a2.839 2.839 0 0 0-3.13 2.824v74.458l-2.356-5.77c-.934-2.287-3.44-3.645-5.806-2.933a4.732 4.732 0 0 0-3.028 6.323l8.92 21.844-12.917 31.635c-1.125 2.756.248 5.853 3.138 6.566a4.735 4.735 0 0 0 5.543-2.8l6.507-15.934v92.567L91.18 287.83H53.385l52.15-127.726c1.126-2.756-.247-5.853-3.136-6.565a4.735 4.735 0 0 0-5.544 2.798l-53.69 131.492H5.111c-2.47 0-4.677 1.807-4.91 4.266a4.73 4.73 0 0 0 4.707 5.195h216.58a4.732 4.732 0 0 0 4.71-5.194c-.236-2.46-2.442-4.266-4.912-4.266h.002z"/></g></g></svg>