<svg xmlns="http://www.w3.org/2000/svg" xmlns:xlink="http://www.w3.org/1999/xlink" width="256" height="256" style="background:#fff" viewBox="0 0 256 256"><defs><path id="a" d="M86.652 2.152l63.247 36.462c4.968 2.87 7.801 7.793 7.801 13.512v72.925c0 5.738-2.833 10.662-7.801 13.511l-63.247 36.482c-4.968 2.85-10.635 2.85-15.603 0L7.802 138.562C2.833 135.712 0 130.79 0 125.051V52.126c0-5.719 2.833-10.643 7.802-13.512L71.049 2.152c4.968-2.87 10.635-2.87 15.603 0z"/></defs><g fill="none" fill-rule="evenodd" transform="translate(49 39)"><mask id="b" fill="#fff"><use xlink:href="#a"/></mask><use fill="#8DBCE5" xlink:href="#a"/><g mask="url(#b)"><g transform="translate(28.936 34.175)"><path fill="#E4EFF7" d="M8.966 17.349L140.098 17.349 140.098 102.158 8.966 102.158z"/><path fill="#EFF4F7" d="M8.966 25.026L140.098 25.026 140.098 17.349 8.966 17.349z"/><path fill="#ADD2ED" d="M8.966 102.158L140.098 102.158 140.098 96.614 8.966 96.614z"/><path fill="#D3A094" d="M0.932 8.801L148.133 8.801 140.312 18.454 7.122 18.454z"/><path fill="#D3A094" d="M0.932 111.734L148.133 111.734 140.312 102.099 7.122 102.099z"/><path fill="#C9897B" d="M4.037 13.627L144.232 13.627 140.312 18.454 7.122 18.454z"/><path fill="#C9897B" d="M0.932 111.734L148.133 111.734 143.669 106.287 4.502 106.17z"/><path fill="#B5E8C0" d="M17.583 66.044H27.906999999999996V85.06H17.583z"/><path fill="#F2E796" d="M34.505 49.179H44.829V85.08000000000001H34.505z"/><path fill="#FA96A2" d="M51.409 35.532H61.733V85.06H51.409z"/><path fill="#396182" fill-rule="nonzero" d="M73.688 8.8c0 .776-.621 1.396-1.378 1.396-.757 0-1.378-.62-1.378-1.395V1.396C70.932.62 71.553 0 72.31 0c.757 0 1.378.62 1.378 1.396V8.8zM36.427 149.147a1.37 1.37 0 0 1-1.902.446 1.34 1.34 0 0 1-.447-1.88l22.707-36.696a1.38 1.38 0 1 1 2.348 1.454l-22.706 36.676zm49.623-36.695a1.363 1.363 0 0 1 .466-1.88c.66-.407 1.494-.194 1.902.465l22.24 36.676c.388.659.175 1.492-.466 1.9a1.406 1.406 0 0 1-1.902-.466l-22.24-36.695zm22.299-75.91a1.37 1.37 0 0 1-1.378-1.377 1.37 1.37 0 0 1 1.378-1.376l7.801-.04c.408-.019.815.156 1.106.485.233.252.33.601.33.93l.04 8.705c0 .775-.622 1.376-1.398 1.376a1.37 1.37 0 0 1-1.378-1.376l-.02-5.738-15.835 13.666a1.4 1.4 0 0 1-2.232-.6l-2.795-8.298-14.244 12.407a1.423 1.423 0 0 1-1.96-.136 1.383 1.383 0 0 1 .135-1.958l15.817-13.763a1.386 1.386 0 0 1 1.96.136c.136.174.233.368.291.562l2.775 8.219 13.72-11.844-4.113.02zm30.371-18.377c0-.776.621-1.396 1.378-1.396.757 0 1.378.62 1.378 1.396v83.18c0 .755-.62 1.376-1.378 1.376-.757 0-1.378-.62-1.378-1.377v-83.18zm-128.357 83.18c0 .755-.62 1.376-1.397 1.376-.757 0-1.378-.62-1.378-1.377v-83.18a1.387 1.387 0 1 1 2.775 0v83.18z"/><path fill="#396182" fill-rule="nonzero" d="M3.823 110.338h141.108l-5.706-7.618H8.325l-4.502 7.618zm143.863 2.753H1.397a1.38 1.38 0 0 1-1.203-2.075l6.113-10.312a1.4 1.4 0 0 1 1.242-.756h132.355c.427 0 .835.194 1.106.562l7.705 10.274c.213.252.35.562.35.93 0 .756-.622 1.377-1.379 1.377zM1.397 7.424h146.29c.756 0 1.377.62 1.377 1.377 0 .368-.136.698-.368.95l-7.724 9.285c-.272.33-.66.504-1.068.504H7.55a1.37 1.37 0 0 1-1.203-.679L.233 9.557a1.4 1.4 0 0 1 .407-1.92c.233-.135.486-.213.757-.213zm143.34 2.772H3.959l4.328 6.572h130.977l5.473-6.572zm-73.378 59.24c-.776 0-1.397-.62-1.397-1.376a1.39 1.39 0 0 1 1.397-1.396h43.413a1.387 1.387 0 0 1 0 2.772H71.36zm51.118 0a1.387 1.387 0 0 1 0-2.772h4.93a1.387 1.387 0 0 1 0 2.772h-4.93zm-51.118 8.2c-.776 0-1.397-.62-1.397-1.376a1.39 1.39 0 0 1 1.397-1.396h9.84a1.387 1.387 0 0 1 0 2.772h-9.84zm15.914 0c-.776 0-1.398-.62-1.398-1.376a1.39 1.39 0 0 1 1.398-1.396h40.133a1.387 1.387 0 0 1 0 2.772H87.273zm-15.914 8.2c-.776 0-1.397-.62-1.397-1.377a1.39 1.39 0 0 1 1.397-1.395h35.922c.777 0 1.398.62 1.398 1.395 0 .756-.621 1.377-1.398 1.377H71.36zM17.583 64.668h10.344c.756 0 1.377.62 1.377 1.376V85.08c0 .756-.62 1.376-1.377 1.376H17.583c-.757 0-1.378-.62-1.378-1.376V66.044c0-.756.62-1.376 1.378-1.376zm8.946 2.772h-7.55v16.244h7.55V67.44zm7.976-19.637H44.83c.757 0 1.378.6 1.378 1.376v35.9c0 .757-.621 1.377-1.378 1.377H34.505c-.776 0-1.397-.62-1.397-1.376v-35.9c0-.776.621-1.377 1.397-1.377zm8.928 2.752h-7.55v33.129h7.55V50.555zm7.976-16.4h10.324c.757 0 1.378.621 1.378 1.377V85.08c0 .756-.62 1.376-1.378 1.376H51.41c-.776 0-1.397-.62-1.397-1.376V35.532c0-.756.62-1.376 1.397-1.376zm8.946 2.773h-7.568v46.756h7.568V36.928z"/></g></g><path d="M86.652 2.152l63.247 36.462c4.968 2.87 7.801 7.793 7.801 13.512v72.925c0 5.738-2.833 10.662-7.801 13.511l-63.247 36.482c-4.968 2.85-10.635 2.85-15.603 0L7.802 138.562C2.833 135.712 0 130.79 0 125.051V52.126c0-5.719 2.833-10.643 7.802-13.512L71.049 2.152c4.968-2.87 10.635-2.87 15.603 0z" mask="url(#b)"/></g></svg>