<svg xmlns="http://www.w3.org/2000/svg" xmlns:xlink="http://www.w3.org/1999/xlink" width="256" height="256" style="background:#fff" viewBox="0 0 256 256"><defs><path id="a" d="M84.616 2.112l61.754 35.684C151.213 40.6 154 45.404 154 51.01v71.355c0 5.591-2.787 10.41-7.63 13.213l-61.754 35.67c-4.843 2.803-10.39 2.803-15.246 0l-61.74-35.67C2.773 132.775 0 127.955 0 122.364V51.01c0-5.605 2.773-10.41 7.63-13.213L69.37 2.112c4.857-2.802 10.403-2.802 15.246 0z"/></defs><g fill="none" fill-rule="evenodd" transform="translate(51 41)"><mask id="b" fill="#fff"><use xlink:href="#a"/></mask><use fill="#8DBCE5" xlink:href="#a"/><g mask="url(#b)"><g transform="translate(8.374 20.049)"><path fill="#BFD9EB" d="M38.013 28.09c.216-.013.433-.027.663-.027a7.133 7.133 0 0 1 7.129 7.134 7.133 7.133 0 0 1-7.13 7.134h-28.38c-4.938 0-8.942-4.007-8.942-8.948 0-4.846 3.855-8.786 8.671-8.935.69-7.16 6.723-12.752 14.055-12.752 7.792 0 14.11 6.322 14.11 14.12 0 .771-.054 1.53-.176 2.274z"/><path fill="#E4EFF7" d="M38.27 28.077c.135-.014.27-.014.406-.014a7.13 7.13 0 0 1 6.44 4.088 7.505 7.505 0 0 1-7.428 6.363 7.502 7.502 0 0 1-5.505-2.396c3.34-2.099 5.167-5.713 6.087-8.041zM9.713 24.462c.108 0 .203-.014.311-.014.69-7.16 6.723-12.752 14.055-12.752 4.667 0 8.793 2.261 11.364 5.74a13.478 13.478 0 0 1 1.028 5.185c0 7.432-6.02 13.456-13.447 13.456-6.79 0-12.418-5.05-13.311-11.615z"/><path fill="#E4EFF7" d="M17.627 34.94c-1.394 2.41-3.991 4.048-6.98 4.048-4.451 0-8.05-3.615-8.05-8.055 0-1.029.203-2.017.555-2.91 1.366-1.828 4.112-3.209 6.56-3.493a13.506 13.506 0 0 0 7.915 10.41zm51-33.586c7.737 0 13.676 27.819 13.676 33.816v71.437H54.95V35.17c0-6.877 6.155-33.816 13.676-33.816zM54.95 106.607H27.772c0-20.428 11.5-17.842 15.382-30.987 4.058-13.727-3.87-22.5 11.796-34.94v65.927z"/><path fill="#BFD9EB" d="M51.77 43.455v63.152h3.18V40.68a42.839 42.839 0 0 0-3.18 2.775z"/><path fill="#EFF4F7" d="M31.763 106.607c0-20.428 11.77-17.842 14.813-30.987 3.18-13.727-3.896-22.5 8.374-34.94-15.665 12.44-7.738 21.213-11.796 34.94-3.883 13.145-15.382 10.559-15.382 30.987h3.991zm29.396 0V35.17c0-2.504.446-7.662 1.204-13.212h-5.208c-1.394 5.55-2.205 10.708-2.205 13.212v71.437h6.209z"/><path fill="#BFD9EB" d="M82.303 106.607V35.17c0-2.234-.825-7.486-2.26-13.212h-5.18c.77 5.726 1.23 10.978 1.23 13.212v71.437h6.21z"/><path fill="#7688A1" d="M80.044 21.958c-2.408-9.639-6.561-20.604-11.418-20.604-4.789 0-9.023 10.91-11.471 20.604H80.043z"/><path fill="#9AA8AD" d="M63.621 21.958c-1.096-3.412 2.137-17.355 6.399-20.306-.46-.19-.92-.298-1.394-.298-4.789 0-9.023 10.91-11.471 20.604h6.466z"/><path fill="#E4EFF7" d="M82.303 106.607h27.177c0-20.428-11.512-17.842-15.394-30.987-4.059-13.727 3.868-22.5-11.783-34.94v65.927z"/><path fill="#BFD9EB" d="M85.482 43.455v63.152h-3.18V40.68a42.839 42.839 0 0 1 3.18 2.775z"/><path fill="#EFF4F7" d="M105.49 106.607c0-20.428-11.783-17.842-14.827-30.987-3.179-13.727 3.91-22.5-8.36-34.94 15.651 12.44 7.724 21.213 11.783 34.94 3.882 13.145 15.394 10.559 15.394 30.987h-3.99z"/><ellipse cx="68.626" cy="36.632" fill="#FA96A2" rx="7.63" ry="7.635"/><path fill="#E67C89" d="M68.626 44.254a7.618 7.618 0 0 0 7.616-7.622c0-4.21-3.409-7.635-7.616-7.635-.31 0-.595.027-.893.054 2.909.38 5.155 2.884 5.155 5.903a5.931 5.931 0 0 1-5.94 5.942c-3.016 0-5.518-2.247-5.897-5.157-.027.297-.054.582-.054.893 0 4.21 3.422 7.622 7.63 7.622z"/><ellipse cx="66.651" cy="35.319" fill="#FCBDC4" rx="2.259" ry="2.261"/><path fill="#BFD9EB" d="M137.13 69.108c.177-.013.366-.027.556-.027a6.09 6.09 0 0 1 6.087 6.092c0 3.37-2.72 6.105-6.087 6.105H113.43c-4.22 0-7.63-3.425-7.63-7.648a7.63 7.63 0 0 1 7.4-7.635c.596-6.12 5.75-10.911 12.013-10.911 6.67 0 12.067 5.415 12.067 12.075 0 .663-.054 1.313-.15 1.95z"/><path fill="#E4EFF7" d="M137.347 69.095c.109-.014.23-.014.339-.014a6.114 6.114 0 0 1 5.519 3.493c-.487 3.086-3.139 5.442-6.358 5.442a6.391 6.391 0 0 1-4.708-2.058c2.855-1.787 4.424-4.873 5.208-6.863zm-24.417-3.087c.094 0 .19-.013.27-.013.596-6.12 5.75-10.911 12.013-10.911 3.99 0 7.521 1.935 9.713 4.927.568 1.354.88 2.843.88 4.413 0 6.35-5.141 11.507-11.486 11.507-5.817 0-10.62-4.318-11.39-9.923z"/><path fill="#E4EFF7" d="M119.694 74.956a6.84 6.84 0 0 1-5.966 3.452 6.876 6.876 0 0 1-6.872-6.877c0-.88.176-1.719.473-2.49 1.164-1.557 3.517-2.735 5.614-2.979a11.497 11.497 0 0 0 6.75 8.894z"/><path fill="#F2E796" d="M53.773 162.597s-9.077-26.303-8.198-49.898h16.396c.879 23.595-8.198 49.898-8.198 49.898z"/><path fill="#BFD9EB" d="M61.05 89.644v17.003l-6.1-.04h-6.088l-.027-16.963c0-13.753 12.216-13.591 12.216 0z"/><path fill="#E4EFF7" d="M54.95 86.436c.73-2.748 2.164-4.427 3.76-5.05-1.082-1.312-2.421-1.99-3.76-1.99-1.11-.013-2.219.434-3.18 1.327-1.69 1.57-2.935 4.535-2.935 8.921v17.003l5.6-.04v-15.88c0-1.638.19-3.072.515-4.29z"/><path fill="#FCF3B3" d="M53.773 140.924s-6.913-14.878-6.25-28.225h12.5c.663 13.347-6.25 28.225-6.25 28.225z"/><path fill="#698994" d="M47.685 106.607L43.573 112.699 63.973 112.699 59.847 106.607 53.773 106.607z"/><path fill="#92AAB2" d="M51.23 112.699L53.813 106.607 53.773 106.607 48.862 106.607 48.835 106.607 47.685 106.607 43.573 112.699 45.575 112.699 47.523 112.699z"/><path fill="#F2E796" d="M81.951 162.597s-9.063-26.303-8.198-49.898H90.15c.88 23.595-8.198 49.898-8.198 49.898z"/><path fill="#BFD9EB" d="M89.243 89.644v17.003l-6.115-.04h-6.087l-.027-16.963c0-13.753 12.229-13.591 12.229 0z"/><path fill="#E4EFF7" d="M83.128 86.436c.73-2.748 2.165-4.427 3.76-5.05-1.081-1.312-2.42-1.99-3.76-1.99-1.11-.013-2.218.434-3.179 1.327-1.69 1.57-2.935 4.535-2.935 8.921v17.003l5.6-.04v-15.88c0-1.638.19-3.072.514-4.29z"/><path fill="#FCF3B3" d="M81.951 140.924s-6.913-14.878-6.25-28.225h12.5c.676 13.347-6.25 28.225-6.25 28.225z"/><path fill="#698994" d="M75.877 106.607L71.751 112.699 92.165 112.699 88.039 106.607 81.951 106.607z"/><path fill="#92AAB2" d="M79.421 112.699L81.992 106.607 81.951 106.607 77.041 106.607 77.014 106.607 75.877 106.607 71.751 112.699 73.753 112.699 75.701 112.699z"/><path fill="#396182" fill-rule="nonzero" d="M38.405 29.417l-.27.013-1.732.163.284-1.72c.04-.31.081-.65.109-1.015.027-.338.04-.677.04-1.042 0-3.52-1.42-6.715-3.734-9.03a12.714 12.714 0 0 0-9.023-3.736c-3.3 0-6.317 1.245-8.576 3.303-2.286 2.085-3.829 4.982-4.14 8.217l-.108 1.192-1.19.04c-2.043.054-3.883.934-5.222 2.302a7.604 7.604 0 0 0 .081 10.654 7.608 7.608 0 0 0 5.37 2.22h28.382c1.583 0 3.03-.65 4.085-1.693a5.773 5.773 0 0 0 1.691-4.088c0-1.597-.65-3.046-1.69-4.088a5.812 5.812 0 0 0-4.086-1.692h-.27zm1.11-2.667a8.542 8.542 0 0 1 5.154 2.437 8.532 8.532 0 0 1 2.489 6.01c0 2.342-.96 4.454-2.49 5.997a8.431 8.431 0 0 1-5.992 2.491H10.295a10.25 10.25 0 0 1-7.278-3.019A10.242 10.242 0 0 1 0 33.383c0-2.775 1.11-5.306 2.908-7.161a10.25 10.25 0 0 1 5.926-3.019 15.473 15.473 0 0 1 4.856-8.853 15.4 15.4 0 0 1 10.39-4.007c4.274 0 8.143 1.732 10.943 4.535a15.444 15.444 0 0 1 4.532 10.938c0 .311-.013.622-.04.934z"/><path fill="#396182" fill-rule="nonzero" d="M36.714 27.725a1.349 1.349 0 1 1 2.598.73c0 .014-.433 1.896-1.678 4.021a1.358 1.358 0 0 1-1.853.474 1.347 1.347 0 0 1-.474-1.841c1.015-1.746 1.407-3.384 1.407-3.384zm-3.395 5.848a1.362 1.362 0 0 1 1.907.135c.487.569.42 1.421-.135 1.909-.149.122-.284.244-.406.338-.135.109-.284.23-.446.339a1.346 1.346 0 0 1-1.88-.325 1.348 1.348 0 0 1 .31-1.882c.109-.068.217-.149.325-.244a2.44 2.44 0 0 0 .325-.27zm14.366 71.68c.744 0 1.353.61 1.353 1.354 0 .744-.609 1.34-1.353 1.34l-19.913.014c-.744 0-1.352-.61-1.352-1.354 0-12.752 4.302-16.949 8.63-21.186 2.665-2.6 5.344-5.226 6.818-10.18 1.313-4.454 1.313-8.407 1.326-12.143.014-7.879.027-14.824 10.904-23.474a1.355 1.355 0 0 1 1.907.216c.46.583.365 1.435-.217 1.896-9.875 7.851-9.888 14.173-9.902 21.362-.013 3.926-.013 8.095-1.434 12.9-1.664 5.646-4.6 8.516-7.521 11.359-3.76 3.682-7.495 7.337-7.792 17.896h18.546zm32.359-84.65c.744 0 1.353.61 1.353 1.355 0 .758-.61 1.353-1.353 1.353h-22.89a1.349 1.349 0 0 1-1.352-1.353c0-.745.609-1.354 1.353-1.354h22.889zm7.995 87.358c-.744 0-1.353-.61-1.353-1.354 0-.745.609-1.354 1.353-1.354H108.1c-.297-10.573-4.017-14.214-7.792-17.896-2.908-2.843-5.844-5.713-7.508-11.358-1.42-4.806-1.434-8.975-1.434-12.901-.013-7.189-.027-13.51-9.902-21.362a1.353 1.353 0 0 1-.216-1.896 1.339 1.339 0 0 1 1.894-.216c10.89 8.65 10.903 15.595 10.917 23.474 0 3.736.013 7.689 1.325 12.143 1.461 4.954 4.153 7.58 6.818 10.18 4.33 4.237 8.63 8.434 8.63 21.186 0 .744-.608 1.354-1.352 1.354H88.04zM68.626 27.643a8.954 8.954 0 0 1 6.345 2.64 8.955 8.955 0 0 1 2.624 6.35 8.955 8.955 0 0 1-2.624 6.348 8.943 8.943 0 0 1-6.345 2.626 8.943 8.943 0 0 1-6.344-2.626 8.967 8.967 0 0 1-2.638-6.349 8.967 8.967 0 0 1 2.638-6.349 8.954 8.954 0 0 1 6.344-2.64zm4.437 4.549a6.255 6.255 0 0 0-4.437-1.841c-1.731 0-3.3.704-4.437 1.84a6.264 6.264 0 0 0-1.84 4.441c0 1.733.704 3.303 1.84 4.44a6.3 6.3 0 0 0 8.874 0 6.31 6.31 0 0 0 1.827-4.44c0-1.746-.69-3.303-1.827-4.44zm2.057 16.096a.97.97 0 0 1 .974-.975c.527 0 .974.433.974.975v17.639a.979.979 0 0 1-.974.975.97.97 0 0 1-.974-.975v-17.64zm0 22.08c0-.529.433-.975.974-.975.527 0 .974.446.974.974v3.14a.988.988 0 0 1-.974.976.979.979 0 0 1-.974-.975v-3.14zm62.336.067l-.217.013-1.718.163.27-1.72c.041-.257.082-.54.109-.852.013-.284.027-.569.027-.88 0-2.951-1.204-5.632-3.139-7.581a10.668 10.668 0 0 0-7.575-3.127c-2.773 0-5.29 1.042-7.197 2.775a10.63 10.63 0 0 0-3.463 6.89l-.122 1.192-1.19.04a6.2 6.2 0 0 0-4.315 1.91 6.241 6.241 0 0 0-1.773 4.372c0 1.746.704 3.316 1.84 4.454a6.255 6.255 0 0 0 4.437 1.84h24.256a4.738 4.738 0 0 0 4.735-4.752c0-1.299-.528-2.49-1.38-3.343a4.71 4.71 0 0 0-3.355-1.394h-.23zm1.163-2.653a7.479 7.479 0 0 1 4.329 2.125 7.42 7.42 0 0 1 2.191 5.266 7.397 7.397 0 0 1-2.191 5.266v.014a7.43 7.43 0 0 1-5.262 2.18H113.43a8.986 8.986 0 0 1-8.982-9.003c0-2.423.96-4.644 2.543-6.254a8.917 8.917 0 0 1 5.032-2.627 13.314 13.314 0 0 1 4.18-7.527 13.359 13.359 0 0 1 9.01-3.492c3.707 0 7.061 1.502 9.496 3.94a13.41 13.41 0 0 1 3.923 9.489c0 .217 0 .42-.013.623z"/><path fill="#396182" fill-rule="nonzero" d="M135.792 68.892a1.358 1.358 0 0 1 1.555-1.124 1.36 1.36 0 0 1 1.11 1.557c0 .013-.406 1.787-1.488 3.628a1.345 1.345 0 0 1-1.84.474 1.336 1.336 0 0 1-.487-1.841c.852-1.462 1.15-2.694 1.15-2.694zm-2.814 4.751a1.35 1.35 0 0 1 1.907.136 1.365 1.365 0 0 1-.121 1.908c-.136.109-.271.217-.366.298-.094.068-.216.163-.392.285a1.356 1.356 0 0 1-1.88-.312 1.36 1.36 0 0 1 .324-1.881c.054-.041.15-.109.27-.204.11-.094.204-.162.258-.23zM68.626 0c3.68 0 6.805 4.576 9.213 10.546 3.558 8.785 5.817 20.86 5.817 24.624v44.24c0 .745-.61 1.354-1.353 1.354-.068 0-.135 0-.203-.014h-.176c-.96 0-1.948.515-2.773 1.557-.947 1.205-1.65 3.046-1.88 5.55-.041.529-.068 1.124-.068 1.787h-.014l.027 15.61h.122v2.707h-1.46v-.014l-15.99.014c-.745 0-1.353-.61-1.353-1.354V89.644c0-2.558-.46-4.562-1.177-6.037-.744-1.516-1.759-2.437-2.8-2.748a1.332 1.332 0 0 1-.961-1.286V35.17c0-4.237 2.26-15.866 5.722-24.435C61.781 4.657 64.947 0 68.626 0zm6.71 11.56c-2.03-5.008-4.383-8.853-6.71-8.853-2.326 0-4.734 3.926-6.804 9.043-3.342 8.272-5.52 19.4-5.52 23.42v43.496c1.353.677 2.584 1.936 3.477 3.75.893 1.827 1.461 4.25 1.461 7.228v15.61h13.284l-.027-15.61c0-.663.027-1.34.095-2.03.27-3.073 1.19-5.402 2.435-6.972 1.11-1.421 2.49-2.26 3.923-2.518V35.17c0-3.574-2.178-15.135-5.614-23.61zM60.618 112.754c-.014-.745.568-1.381 1.312-1.395a1.346 1.346 0 0 1 1.393 1.3c.88 23.84-8.251 50.305-8.279 50.373-.23.717-1 1.083-1.718.839a1.359 1.359 0 0 1-.838-.84c-.027-.067-9.145-26.533-8.266-50.372a1.346 1.346 0 0 1 1.394-1.3c.744.014 1.325.65 1.298 1.395-.65 17.788 4.41 37.133 6.859 45.35 2.448-8.217 7.508-27.562 6.845-45.35z"/><path fill="#396182" fill-rule="nonzero" d="M49.038 106.607c0 .744-.609 1.34-1.353 1.34s-1.339-.596-1.339-1.34l-.027-16.963h-.013c0-5.428 1.84-8.961 4.193-10.572l.081-.054a5.764 5.764 0 0 1 3.18-.975c1.122 0 2.231.352 3.246 1.042 2.367 1.611 4.234 5.158 4.234 10.56v17.002c0 .745-.609 1.354-1.353 1.354-.757 0-1.352-.609-1.352-1.354V89.644c0-4.4-1.34-7.174-3.03-8.325-.569-.393-1.164-.582-1.746-.582-.568 0-1.136.176-1.677.528l-.068.04c-1.677 1.151-3.003 3.913-3.003 8.34l.027 16.962z"/><path fill="#396182" fill-rule="nonzero" d="M53.773 107.96h-5.37l-2.287 3.385H61.43l-2.287-3.384h-5.37zm-6.088-2.707H59.847c.433 0 .866.203 1.123.596l4.356 6.85c0 .744-.61 1.353-1.353 1.353h-20.4a1.28 1.28 0 0 1-.758-.23 1.353 1.353 0 0 1-.365-1.881l4.072-6.025 1.163-.663zm-1.163.663a1.352 1.352 0 0 1 1.163-.663l-1.163.663zm42.288 6.837c-.027-.745.554-1.381 1.298-1.395a1.346 1.346 0 0 1 1.394 1.3c.88 23.84-8.239 50.305-8.266 50.373a1.344 1.344 0 0 1-1.718.839 1.327 1.327 0 0 1-.838-.84c-.028-.067-9.159-26.533-8.28-50.372a1.358 1.358 0 0 1 1.407-1.3c.744.014 1.326.65 1.3 1.395-.664 17.788 4.396 37.133 6.844 45.35 2.449-8.217 7.508-27.562 6.859-45.35zm-11.594-6.146c0 .744-.595 1.34-1.339 1.34a1.346 1.346 0 0 1-1.353-1.34l-.027-16.963c0-5.428 1.827-8.961 4.18-10.572l.082-.054c1-.65 2.083-.975 3.179-.975 1.122 0 2.232.352 3.26 1.042 2.367 1.611 4.22 5.158 4.22 10.56v17.002c0 .745-.608 1.354-1.352 1.354-.744 0-1.353-.609-1.353-1.354V89.644c0-4.4-1.34-7.174-3.03-8.325-.568-.393-1.164-.582-1.745-.582-.569 0-1.137.176-1.678.528l-.054.04c-1.69 1.151-3.003 3.913-3.003 8.34h-.014l.027 16.962z"/><path fill="#396182" fill-rule="nonzero" d="M76.594 107.96l-2.3 3.385h15.314l-2.286-3.384H76.594zm15.57 6.092H71.752a1.31 1.31 0 0 1-.757-.23 1.353 1.353 0 0 1-.366-1.881l4.086-6.025c.23-.406.663-.663 1.163-.663H88.04c.433 0 .852.203 1.122.596l4.356 6.85c0 .744-.757 1.353-1.515 1.353h.163zm6.846-1.516c0-.744.608-1.354 1.352-1.354.744 0 1.353.61 1.353 1.354v12.21c0 .745-.609 1.355-1.353 1.355s-1.352-.61-1.352-1.354v-12.21zm0 17.206c0-.758.608-1.354 1.352-1.354.744 0 1.353.596 1.353 1.354v2.437c0 .744-.609 1.354-1.353 1.354s-1.352-.61-1.352-1.354v-2.437zm6.06-17.206c0-.744.609-1.354 1.353-1.354s1.353.61 1.353 1.354v5.537c0 .758-.61 1.354-1.353 1.354a1.349 1.349 0 0 1-1.353-1.354v-5.537zm-69.546 0a1.36 1.36 0 0 1 2.719 0v12.21a1.36 1.36 0 0 1-2.72 0v-12.21zm0 17.206c0-.758.609-1.354 1.366-1.354.744 0 1.353.596 1.353 1.354v2.437a1.36 1.36 0 0 1-2.72 0v-2.437zm-6.06-17.206a1.36 1.36 0 0 1 2.72 0l-.001 5.537c0 .758-.61 1.354-1.367 1.354a1.349 1.349 0 0 1-1.353-1.354v-5.537z"/></g></g><path d="M84.616 2.112l61.754 35.684C151.213 40.6 154 45.404 154 51.01v71.355c0 5.591-2.787 10.41-7.63 13.213l-61.754 35.67c-4.843 2.803-10.39 2.803-15.246 0l-61.74-35.67C2.773 132.775 0 127.955 0 122.364V51.01c0-5.605 2.773-10.41 7.63-13.213L69.37 2.112c4.857-2.802 10.403-2.802 15.246 0z" mask="url(#b)"/></g></svg>