<svg xmlns="http://www.w3.org/2000/svg" xmlns:xlink="http://www.w3.org/1999/xlink" width="256" height="256" style="background:#fff" viewBox="0 0 256 256"><defs><path id="a" d="M86.834 2.177l63.345 36.63C155.15 41.686 158 46.615 158 52.37v73.262c0 5.755-2.849 10.684-7.821 13.561l-63.345 36.631c-4.973 2.878-10.67 2.878-15.643 0l-63.37-36.63C2.85 136.314 0 131.385 0 125.63V52.369c0-5.755 2.849-10.684 7.821-13.561l63.37-36.631c4.973-2.878 10.67-2.878 15.643 0z"/></defs><g fill="none" fill-rule="evenodd" transform="translate(49 39)"><mask id="b" fill="#fff"><use xlink:href="#a"/></mask><use fill="#8DBCE5" xlink:href="#a"/><g mask="url(#b)"><g transform="translate(-56.448 29.95)"><path fill="#FACE99" d="M64.52 87.224c3.323 2.702 4.622 4.403 5.647 6.555.3.626 3.948 15.388 47.752 38.057 7.347 3.478 16.217 4.454 19.766 4.454 3.523 0 6.397-3.003 6.397-6.656 0-.775-.125-1.526-.375-2.227 1.2 1.051 2.723 1.702 4.423 1.702 3.748 0 6.771-3.178 6.771-7.056a7.124 7.124 0 0 0-.774-3.278 7.225 7.225 0 0 0 4.623 1.677c4.098 0 7.421-3.453 7.421-7.707a7.832 7.832 0 0 0-1.024-3.903c.924.475 1.949.725 3.048.725 3.748 0 6.772-3.152 6.772-7.056 0-2.452-1.2-4.603-3.024-5.88-6.771-5.654-21.44-18.465-45.803-31.726-12.569-7.557-24.138-9.984-24.488-9.984-7.572 0-11.27-.625-14.493-4.679-10.695 9.809-17.592 23.07-22.64 36.982z"/><path d="M143.707 127.407c-8.596-2.101-17.117-7.156-25.513-12.885"/><path fill="#6B605D" fill-rule="nonzero" d="M144.032 126.081c.75.175 1.2.926 1.024 1.652a1.384 1.384 0 0 1-1.674 1.026c-4.423-1.076-8.82-2.928-13.144-5.205-4.323-2.277-8.596-5.004-12.819-7.882a1.402 1.402 0 0 1-.375-1.926c.45-.626 1.3-.8 1.95-.375 4.148 2.852 8.32 5.504 12.519 7.731 4.173 2.202 8.346 3.953 12.519 4.98z"/><path d="M154.052 118.85c-9.52-3.002-20.04-9.133-31.76-16.589"/><path fill="#6B605D" fill-rule="nonzero" d="M154.452 117.524c.724.225 1.15 1 .924 1.726a1.396 1.396 0 0 1-1.749.926c-4.848-1.526-9.945-3.853-15.293-6.73-5.347-2.853-10.92-6.28-16.792-10.009-.65-.425-.85-1.276-.424-1.926.4-.651 1.274-.826 1.899-.426 5.847 3.728 11.394 7.106 16.617 9.909 5.222 2.802 10.145 5.054 14.818 6.53z"/><path d="M165.072 108.917c-5.123-1.652-16.692-8.257-34.859-18.791"/><path fill="#6B605D" fill-rule="nonzero" d="M165.471 107.59c.75.226 1.15 1.027.9 1.752-.225.726-1 1.126-1.724.876-2.649-.826-6.897-2.928-12.794-6.155-5.872-3.203-13.294-7.507-22.34-12.736-.674-.4-.9-1.251-.5-1.902a1.338 1.338 0 0 1 1.875-.5c9.12 5.28 16.567 9.583 22.29 12.71 5.747 3.128 9.82 5.155 12.293 5.956z"/><path fill="#EBBD86" d="M172.143 108.592c2.324-1.126 3.923-3.579 3.923-6.406 0-2.452-1.224-4.629-3.048-5.88-6.747-5.655-21.44-18.465-45.778-31.752-12.594-7.556-24.164-9.958-24.489-9.958-7.596 0-12.444-1.301-15.692-5.33a69.105 69.105 0 0 0-6.547 6.981c.974-1.025 1.999-2.026 3.048-2.977 3.224 4.028 8.096 5.304 15.668 5.304.35 0 11.92 2.427 24.488 9.984 24.339 13.26 39.032 26.072 45.779 31.727 1.849 1.276 3.048 3.427 3.048 5.904 0 .826-.15 1.652-.4 2.403z"/><path fill="#ADD2ED" d="M20.615 1.401l69.317 46.364c-13.468 11.36-21.04 26.397-26.562 42.786L1.4 50.242l19.215-48.84z"/><path fill="#FA96A2" d="M228.916 1.401l-69.342 46.364c13.469 11.36 21.065 26.397 26.588 42.786l61.97-40.309-19.216-48.84z"/><path fill="#FCBDC4" d="M228.916 1.401l-69.342 46.364a67.317 67.317 0 0 1 3.923 3.578L230.666 5.83l-1.75-4.429z"/><path fill="#E4EFF7" d="M20.615 1.401l69.342 46.364a67.317 67.317 0 0 0-3.923 3.578L18.666 6.355l1.95-4.954z"/><path fill="#76AACF" d="M4.873 40.86l61.995 40.233c-1.274 3.078-2.424 6.256-3.498 9.458L1.4 50.242a167.896 167.896 0 0 1 3.473-9.383z"/><path fill="#6B605D" fill-rule="nonzero" d="M117.869 128.358c.475-.6 1.35-.675 1.95-.2.599.475.699 1.351.224 1.952l-.7.85c2.674 1.176 5.548 2.052 8.221 2.653 4.273.95 8.097 1.276 10.12 1.276.55 0 1.075-.1 1.55-.25 1.05-.35 1.899-1.051 2.499-1.927.6-.9.95-1.977.95-3.128 0-.575-.076-1.15-.276-1.726-.25-.726.15-1.502.875-1.752.375-.125.75-.075 1.074.075 1.9.926 3.649 1.001 5.073.526.7-.25 1.324-.626 1.85-1.101a5.81 5.81 0 0 0 1.299-1.702c.65-1.376.8-3.027.25-4.679a1.395 1.395 0 0 1 .85-1.776c.324-.1.624-.075.924.025 1.349.475 2.723.7 4.048.7 1.399 0 2.673-.275 3.698-.85a4.572 4.572 0 0 0 2.099-2.477c.225-.6.325-1.301.325-2.102 0-.6-.075-1.151-.2-1.676l-.025-.075a5.903 5.903 0 0 0-.6-1.477 1.393 1.393 0 0 1 .525-1.901c.425-.226.9-.226 1.324-.025.375.2.75.35 1.15.45a5.229 5.229 0 0 0 5.048-1.501c.974-1.001 1.599-2.427 1.599-4.004 0-1-.25-1.926-.65-2.702-.425-.826-1.05-1.551-1.8-2.052-.024-.025-.074-.05-.1-.075l-1.274-1.076-.075-.075c-4.972-4.178-13.268-11.159-25.363-19.116a386.959 386.959 0 0 0-9.17-5.655h-.025a912.289 912.289 0 0 0-9.62-5.654l-.05-.025-.026-.025v.025l-.15-.1-.024-.025-1.5-.876a1.37 1.37 0 0 1-.525-1.877c.4-.675 1.25-.9 1.9-.525l1.499.876.075.05.125.075.05.025c3.223 1.876 6.447 3.753 9.67 5.68a360.73 360.73 0 0 1 9.27 5.68v.024c12.22 8.057 20.616 15.088 25.639 19.317l.075.075 1.224 1.026c1.1.775 1.999 1.801 2.649 3.027.6 1.176.95 2.527.95 3.978 0 2.302-.9 4.404-2.375 5.93a8 8 0 0 1-5.797 2.503c-.275 0-.55-.026-.824-.05.124.6.174 1.2.174 1.826 0 1.1-.174 2.127-.474 3.028-.65 1.776-1.824 3.102-3.349 3.953-1.474.85-3.223 1.25-5.072 1.25-.9 0-1.8-.1-2.724-.274a8.715 8.715 0 0 1-.875 4.403 8.487 8.487 0 0 1-1.924 2.578 8.72 8.72 0 0 1-2.798 1.651c-1.45.5-3.099.6-4.873.175v.075c0 1.702-.5 3.328-1.424 4.68a7.667 7.667 0 0 1-3.899 3.002c-.774.25-1.599.4-2.448.4-2.15 0-6.197-.35-10.72-1.351-3.149-.7-6.522-1.752-9.646-3.228l-.05-.025-.724-.375c-.075-.05-.175-.1-.225-.15-.6-.476-.7-1.351-.225-1.952l1.774-2.227zm-13.544-74.237c.75.175 1.175.925 1 1.676-.2.75-.95 1.176-1.7 1-.549-.15-1.024-.274-1.374-.35-.4-.074-.574-.125-.6-.125-3.897 0-6.821-.175-9.245-.9-2.124-.6-3.798-1.602-5.347-3.178-4.773 4.579-8.771 9.883-12.145 15.638-3.473 5.93-6.322 12.336-8.77 18.891 1.349 1.151 2.348 2.127 3.123 3.053.95 1.126 1.6 2.177 2.15 3.353.024.075.05.15.1.275v.025-.025c.099.275.299.85.749 1.701.35.676.075 1.501-.6 1.852a1.38 1.38 0 0 1-1.874-.6c-.525-1.027-.775-1.702-.875-2.027v-.025c-.474-.951-1-1.827-1.774-2.753-.8-.95-1.899-2.001-3.473-3.303-.475-.35-.65-.975-.45-1.55 2.549-7.032 5.572-13.913 9.296-20.268 3.748-6.355 8.196-12.21 13.643-17.19.025-.05.075-.075.125-.125a1.388 1.388 0 0 1 1.95.226c1.423 1.776 2.948 2.802 4.922 3.377 2.124.626 4.822.776 8.496.776.125 0 .574.05 1.224.2.375.1.875.225 1.45.376z"/><path fill="#FACE99" d="M86.784 99.434l-5.697 7.13c-2.5 3.128-7.122 3.629-10.246 1.127-3.123-2.502-3.648-7.131-1.124-10.259l5.697-7.13c6.022-7.532 17.392 1.6 11.37 9.132z"/><path fill="#6B605D" fill-rule="nonzero" d="M87.858 100.285l-5.697 7.13a8.626 8.626 0 0 1-5.822 3.203 8.61 8.61 0 0 1-6.372-1.851 8.558 8.558 0 0 1-3.174-5.805 8.665 8.665 0 0 1 1.824-6.38l5.723-7.157.05-.075c2.573-3.152 5.972-3.778 8.945-2.877 1.125.325 2.2.9 3.149 1.651a9.286 9.286 0 0 1 2.299 2.728h.025c1.524 2.727 1.624 6.205-.95 9.433zm-7.846 5.404l5.697-7.13c1.75-2.203 1.7-4.53.675-6.356A6.982 6.982 0 0 0 84.76 90.3a6.79 6.79 0 0 0-2.224-1.176c-1.974-.6-4.248-.15-5.997 1.977l-.05.075-5.698 7.13a5.766 5.766 0 0 0-1.249 4.33c.15 1.526.9 2.952 2.174 3.978 1.25 1 2.824 1.401 4.323 1.25 1.5-.174 2.949-.9 3.973-2.176z"/><path fill="#FACE99" d="M103.276 102.161l-13.719 17.24c-2.498 3.127-7.371 3.302-10.245 1.126-3.398-2.553-3.448-7.357-1.15-10.26l13.72-17.239c5.547-6.955 17.94.901 11.394 9.133z"/><path fill="#6B605D" fill-rule="nonzero" d="M104.35 103.012l-13.718 17.24c-1.45 1.826-3.548 2.827-5.722 3.052-2.274.25-4.673-.325-6.447-1.677l-.05-.05-.1-.075h-.025c-1.9-1.526-2.899-3.678-3.074-5.855-.175-2.151.45-4.353 1.75-6.055l.05-.075.074-.1 13.719-17.24c2.474-3.127 6.097-3.752 9.22-2.827 1.15.35 2.25.901 3.174 1.627.95.75 1.774 1.651 2.349 2.702 1.45 2.627 1.474 5.98-1.2 9.333zm-15.892 15.513l13.718-17.24c1.85-2.327 1.9-4.553.95-6.255-.4-.7-.95-1.326-1.6-1.851a6.418 6.418 0 0 0-2.298-1.151c-2.124-.651-4.573-.226-6.247 1.876l-13.719 17.24-.075.075-.025.05c-.874 1.15-1.299 2.677-1.174 4.153.125 1.477.775 2.903 2.024 3.904l.1.075.025.025c1.2.9 2.874 1.3 4.473 1.126 1.474-.176 2.898-.826 3.848-2.027z"/><path fill="#FACE99" d="M112.422 114.046l-10.695 13.612c-2.474 3.127-6.872 3.277-10.245 1.126-3.574-2.302-3.424-7.357-1.125-10.26l10.695-13.61c6.022-7.657 17.067 1.901 11.37 9.132z"/><path fill="#6B605D" fill-rule="nonzero" d="M113.521 114.897l-10.695 13.611c-1.45 1.827-3.448 2.828-5.572 3.053-2.174.25-4.523-.325-6.522-1.601a32.434 32.434 0 0 1-.575-.426c-1.774-1.401-2.649-3.403-2.798-5.48-.15-1.976.374-4.078 1.424-5.73.15-.2.3-.425.475-.65l10.695-13.611c2.548-3.228 5.872-3.879 8.795-3.003 1.125.325 2.174.9 3.124 1.652.924.75 1.724 1.676 2.324 2.702l.05.075c1.574 2.752 1.749 6.28-.725 9.408zm-12.869 11.885l10.695-13.587c1.65-2.126 1.55-4.478.5-6.33l-.05-.05a6.816 6.816 0 0 0-3.848-3.103c-1.9-.575-4.098-.1-5.797 2.077l-10.695 13.587h-.025c-.1.125-.2.275-.3.45-.75 1.15-1.125 2.627-1.025 4.028.1 1.352.65 2.628 1.75 3.503.1.075.224.175.374.25 1.475.951 3.174 1.377 4.723 1.202 1.424-.15 2.724-.801 3.698-2.027z"/><path fill="#FACE99" d="M118.944 129.234l-3.724 4.679c-2.523 3.127-7.121 3.653-10.245 1.126-3.123-2.502-3.648-7.106-1.15-10.234l3.749-4.704c6.022-7.531 17.392 1.602 11.37 9.133z"/><path fill="#6B605D" fill-rule="nonzero" d="M119.943 130.21l-3.648 4.579a8.647 8.647 0 0 1-5.822 3.177 8.699 8.699 0 0 1-6.372-1.826 8.8 8.8 0 0 1-3.199-5.83c-.225-2.202.35-4.504 1.85-6.38l3.747-4.68.075-.075c2.424-3.002 5.598-3.728 8.446-3.027a9.33 9.33 0 0 1 3.374 1.601c1 .726 1.849 1.677 2.499 2.753 1.499 2.577 1.749 5.88-.425 9.007v.025l-.175.25-.05.05-.2.25a.44.44 0 0 1-.1.126zm-5.822 2.852l3.673-4.579.075-.1.2-.25.15-.225c1.424-2.102 1.274-4.279.275-6.005-.425-.75-1.05-1.401-1.75-1.927a6.747 6.747 0 0 0-2.373-1.15c-1.874-.451-3.998.05-5.673 2.076l-.05.075-3.748 4.679a5.944 5.944 0 0 0-1.224 4.354c.15 1.5.9 2.952 2.149 3.953a5.836 5.836 0 0 0 4.348 1.25 5.75 5.75 0 0 0 3.948-2.176v.025zm-7.547-13.887c.475-.525 1.3-.6 1.875-.15l-1.875.15z"/><path fill="#FACE99" d="M184.787 86.648c-3.798 5.004-7.296 7.531-12.844 9.983-6.522-5.504-13.018-10.984-20.94-16.438-7.92-5.455-17.241-10.86-26.562-16.29-2.424.426-4.848.827-7.921 3.179-3.074 2.326-6.797 6.58-10.295 9.357-3.524 2.803-6.822 4.129-9.72 3.103-2.9-1-5.423-4.354-3.974-8.907 1.45-4.53 6.847-10.284 10.345-14.012 3.499-3.728 5.123-5.48 9.646-6.706 4.547-1.251 12.019-1.977 17.666-2.102 5.648-.125 9.47.35 13.019 1.051 3.548.726 6.822 1.627 10.595 1.752 3.773.125 6.172-.276 8.321-.6 6.022 4.753 18.566 21.717 22.664 36.63z"/><path fill="#FCE3C5" d="M95.73 79.142l-.075-.025c-2.899-1.026-5.423-4.379-3.974-8.908 1.45-4.554 6.847-10.284 10.346-14.037 3.498-3.728 5.122-5.454 9.645-6.705 4.548-1.226 12.02-1.977 17.667-2.102 5.647-.125 9.47.375 13.018 1.076 3.549.7 6.822 1.601 10.595 1.726 3.774.125 6.172-.25 8.321-.575 1.45 1.15 3.299 3.002 5.298 5.354a29.373 29.373 0 0 0-1.075-.9c-2.149.325-4.547.7-8.32.6-3.774-.125-7.047-1.05-10.596-1.751-3.548-.701-7.371-1.201-13.018-1.076-5.648.125-13.12.875-17.667 2.101-4.523 1.251-6.147 2.978-9.645 6.731-3.499 3.728-8.921 9.483-10.346 14.012-.55 1.676-.524 3.178-.174 4.479z"/><path fill="#6B605D" fill-rule="nonzero" d="M185.837 87.549c-1.95 2.577-3.848 4.529-5.972 6.155-2.15 1.626-4.498 2.927-7.372 4.204a1.41 1.41 0 0 1-1.5-.25c-3.298-2.778-6.571-5.555-9.844-8.183-3.424-2.727-7.022-5.454-10.92-8.156-7.747-5.33-16.892-10.634-26.038-15.964-2.099.375-4.248.85-6.847 2.827-1.474 1.101-3.173 2.753-4.922 4.454-1.75 1.727-3.574 3.478-5.348 4.904-1.874 1.477-3.698 2.578-5.497 3.203-1.9.65-3.748.726-5.523.1-1.924-.65-3.673-2.152-4.622-4.253-.8-1.752-1-3.929-.225-6.356 1.524-4.829 6.996-10.634 10.57-14.462l.1-.1.05-.05v-.025c3.648-3.878 5.347-5.68 10.245-7.031 2.224-.6 5.072-1.076 8.046-1.451 3.323-.376 6.872-.626 9.945-.7 2.874-.05 5.298.05 7.447.224 2.199.225 4.073.526 5.872.876.775.15 1.624.325 2.449.525 2.598.55 5.147 1.101 7.921 1.176 3.548.126 5.897-.225 7.971-.55l.1-.025c.4-.05.8.075 1.1.325 3.473 2.753 8.995 9.358 13.893 17.24 3.848 6.255 7.372 13.361 9.22 20.067.126.45 0 .925-.3 1.276zm-7.647 3.953c1.8-1.376 3.424-3.027 5.098-5.154-1.824-6.256-5.123-12.836-8.746-18.666-4.523-7.306-9.52-13.411-12.819-16.189-2.049.3-4.398.626-7.971.5-3.024-.1-5.672-.675-8.396-1.25-.75-.175-1.524-.326-2.399-.5-1.749-.351-3.573-.651-5.597-.826-2.05-.2-4.373-.3-7.147-.226-2.923.05-6.372.3-9.67.701-2.874.325-5.598.8-7.647 1.351-4.123 1.126-5.672 2.753-8.945 6.255l-.075.076-.075.1c-3.424 3.628-8.621 9.182-9.946 13.386-.55 1.726-.424 3.228.1 4.404a5.168 5.168 0 0 0 2.999 2.777c1.15.4 2.399.325 3.748-.125 1.45-.5 3.024-1.451 4.648-2.752 1.7-1.352 3.448-3.053 5.148-4.704 1.799-1.752 3.548-3.453 5.172-4.68 3.349-2.552 5.947-3.002 8.546-3.427.325-.05.65 0 .925.15l.075.05c9.32 5.404 18.64 10.809 26.587 16.289 3.998 2.752 7.621 5.504 11.07 8.257l-.025.025h.025c3.298 2.627 6.297 5.179 9.295 7.681 2.324-1.076 4.273-2.177 6.022-3.503z"/><path fill="#FCE3C5" d="M77.588 94.23l2.524-3.353s3.373.15 4.848 3.503l-2.624 3.502s-1.924-2.176-4.748-3.653zm16.143 2.502l2.498-3.378s3.774.725 5.248 4.103l-2.624 3.503s-2.324-2.752-5.122-4.228zm9.595 12.06l2.499-3.353s3.698.7 5.172 4.053l-2.623 3.503s-2.224-2.727-5.048-4.203zm7.496 15.137l2.174-2.952s2.974.125 4.248 3.053l-2.299 3.052s-1.674-1.876-4.123-3.153z"/><path fill="#E67C89" d="M244.659 40.86l-61.996 40.233c1.275 3.078 2.424 6.256 3.499 9.458l61.97-40.309a167.896 167.896 0 0 0-3.473-9.383z"/><path fill="#6B605D" fill-rule="nonzero" d="M228.242 3.503l-66.394 44.412c6.222 5.505 11.145 11.81 15.193 18.641 4.023 6.83 7.197 14.187 9.87 21.869l59.522-38.708-18.191-46.214zm-41.306 88.2c-.1.074-.2.124-.325.15a1.369 1.369 0 0 1-1.749-.876c-2.748-8.082-5.972-15.864-10.195-22.995-4.198-7.08-9.345-13.561-15.917-19.116-.125-.075-.225-.2-.325-.325a1.386 1.386 0 0 1 .4-1.927L228.417.1c.7-.275 1.499.075 1.774.8l19.24 48.842c.225.6.026 1.301-.524 1.676l-61.97 40.284zM21.465.3l69.242 46.314c.65.426.825 1.301.4 1.927-.1.125-.2.25-.325.325-6.572 5.555-11.72 12.035-15.918 19.116-4.223 7.131-7.471 14.913-10.195 22.995-.25.725-1.024 1.126-1.749.875-.125-.025-.225-.1-.325-.15L.625 51.418A1.426 1.426 0 0 1 .1 49.742L19.316.9c.3-.726 1.1-1.076 1.799-.8.125.05.25.124.35.2zm66.193 47.615L21.29 3.503 3.099 49.717 62.62 88.425c2.674-7.682 5.823-15.038 9.87-21.869 4.024-6.83 8.971-13.136 15.168-18.64z"/><ellipse cx="196.807" cy="73.137" fill="#E4EFF7" rx="3.024" ry="3.028"/><path fill="#6B605D" fill-rule="nonzero" d="M196.807 68.708c1.199 0 2.323.5 3.123 1.301a4.494 4.494 0 0 1 1.274 3.128 4.54 4.54 0 0 1-1.274 3.127c-.8.8-1.924 1.276-3.123 1.276a4.375 4.375 0 0 1-3.124-1.276 4.408 4.408 0 0 1 0-6.255c.8-.8 1.9-1.301 3.124-1.301zm1.149 3.253c-.3-.276-.7-.476-1.15-.476-.45 0-.874.2-1.174.476-.275.3-.475.725-.475 1.176 0 .45.2.85.475 1.15.3.3.725.476 1.175.476.45 0 .85-.175 1.149-.475.3-.3.475-.701.475-1.151 0-.45-.175-.876-.475-1.176z"/><ellipse cx="55.449" cy="73.687" fill="#E4EFF7" rx="3.024" ry="3.028"/><path fill="#6B605D" fill-rule="nonzero" d="M55.449 69.258c1.224 0 2.324.5 3.123 1.301.8.801 1.3 1.902 1.3 3.128 0 1.226-.5 2.327-1.3 3.128-.8.8-1.899 1.3-3.123 1.3-1.2 0-2.324-.5-3.099-1.3-.8-.8-1.3-1.902-1.3-3.128 0-1.226.5-2.327 1.3-3.128.775-.8 1.9-1.3 3.099-1.3zm1.174 3.278c-.3-.3-.725-.475-1.174-.475-.45 0-.85.175-1.15.475-.3.275-.475.7-.475 1.151 0 .45.175.85.475 1.151.3.3.7.475 1.15.475.45 0 .874-.175 1.174-.475.275-.3.475-.7.475-1.15 0-.451-.2-.852-.475-1.152z"/></g></g><path d="M86.834 2.177l63.345 36.63C155.15 41.686 158 46.615 158 52.37v73.262c0 5.755-2.849 10.684-7.821 13.561l-63.345 36.631c-4.973 2.878-10.67 2.878-15.643 0l-63.37-36.63C2.85 136.314 0 131.385 0 125.63V52.369c0-5.755 2.849-10.684 7.821-13.561l63.37-36.631c4.973-2.878 10.67-2.878 15.643 0z" mask="url(#b)"/></g></svg>