<svg xmlns="http://www.w3.org/2000/svg" xmlns:xlink="http://www.w3.org/1999/xlink" width="256" height="256" style="background:#fff" viewBox="0 0 256 256"><defs><path id="a" d="M86.151 2.127l62.168 35.938c4.876 2.822 7.681 7.662 7.681 13.307v71.863c0 5.63-2.805 10.484-7.68 13.306L86.15 172.466c-4.875 2.822-10.459 2.822-15.348 0L8.65 136.54C3.76 133.72.97 128.865.97 123.235V51.372c0-5.645 2.791-10.485 7.68-13.307L70.803 2.127c4.89-2.822 10.473-2.822 15.348 0z"/></defs><g fill="none" fill-rule="evenodd" transform="translate(50 41)"><mask id="b" fill="#fff"><use xlink:href="#a"/></mask><use fill="#8DBCE5" xlink:href="#a"/><g mask="url(#b)"><g transform="translate(-16 35.352)"><ellipse cx="62.876" cy="85.701" fill="#FCBDC4" rx="61.514" ry="61.583"/><ellipse cx="62.876" cy="85.701" fill="#FA96A2" rx="56.666" ry="56.73"/><ellipse cx="62.876" cy="85.701" fill="#E4EFF7" rx="47.365" ry="47.418"/><ellipse cx="62.876" cy="85.701" fill="#FCBDC4" rx="23.546" ry="23.573"/><ellipse cx="62.876" cy="85.701" fill="#FA96A2" rx="18.262" ry="18.283"/><ellipse cx="62.876" cy="85.701" fill="#E4EFF7" rx="10.2" ry="10.212"/><path fill="#F2E796" d="M120.155 13.715L107.626 26.149 107.626 37.997 119.474 37.997 132.003 25.577 120.155 25.577z"/><path fill="#396182" fill-rule="nonzero" d="M62.876 22.755c17.363 0 33.093 7.048 44.464 18.446 11.385 11.384 18.412 27.117 18.412 44.5s-7.027 33.13-18.412 44.514c-11.371 11.398-27.1 18.433-44.464 18.433-17.35 0-33.079-7.035-44.45-18.433C7.04 118.831 0 103.085 0 85.701c0-17.383 7.04-33.116 18.426-44.5 11.371-11.398 27.1-18.446 44.45-18.446zm42.544 20.368C94.525 32.23 79.49 25.481 62.876 25.481c-16.6 0-31.65 6.749-42.53 17.642C9.465 54.017 2.737 69.082 2.737 85.701c0 16.633 6.728 31.685 17.609 42.592 10.88 10.893 25.93 17.628 42.53 17.628 16.614 0 31.65-6.735 42.544-17.628 10.88-10.907 17.608-25.959 17.608-42.592 0-16.62-6.727-31.684-17.608-42.578zm13.373-26.15l-9.805 9.735v9.926h9.928l9.778-9.708h-8.54c-.748 0-1.361-.6-1.361-1.35v-8.602zm-12.12 8.208l12.447-12.365a1.368 1.368 0 0 1 1.035-.464c.749 0 1.362.614 1.362 1.363v10.498h10.431a1.359 1.359 0 0 1 1.008 2.318L120.51 38.897a1.39 1.39 0 0 1-1.035.463h-11.848c-.749 0-1.362-.6-1.362-1.363V26.149c0-.354.136-.709.409-.968zm1.402-6.762a1.359 1.359 0 0 1-1.92-1.922l12.093-12.12a1.355 1.355 0 0 1 1.92 0 1.375 1.375 0 0 1 0 1.935L108.075 18.42zM122.96 3.504a1.355 1.355 0 0 1-1.92.013 1.359 1.359 0 0 1 0-1.922L122.211.41a1.355 1.355 0 0 1 1.92 0c.532.532.532 1.39.014 1.922l-1.185 1.173zm4.971 10.866a1.372 1.372 0 0 1-1.934 0 1.375 1.375 0 0 1 0-1.936l8.593-8.59a1.372 1.372 0 0 1 1.934 0c.531.532.531 1.391 0 1.923l-8.593 8.603zm10.936-10.948a1.355 1.355 0 0 1-1.92-.014 1.359 1.359 0 0 1 0-1.922l1.048-1.05a1.368 1.368 0 0 1 1.92.014c.531.532.531 1.39 0 1.922l-1.048 1.05z"/><path fill="#396182" fill-rule="nonzero" d="M90.862 67.623a1.355 1.355 0 0 1-1.92 0 1.375 1.375 0 0 1 0-1.936l12.937-12.952a1.355 1.355 0 0 1 1.92 0 1.375 1.375 0 0 1 0 1.936L90.862 67.623zm16.287-16.306a1.372 1.372 0 0 1-1.933 0 1.359 1.359 0 0 1 0-1.922l1.62-1.623a1.372 1.372 0 0 1 1.934 0c.531.532.531 1.391 0 1.923l-1.62 1.622zM62.045 86.915a1.368 1.368 0 0 1-1.92.027 1.347 1.347 0 0 1-.027-1.922l47.024-48.427a1.368 1.368 0 0 1 1.92-.027c.531.531.545 1.39.028 1.922L62.045 86.915z"/><path fill="#396182" fill-rule="nonzero" d="M59.703 74.113c0-.764.613-1.364 1.362-1.364.762 0 1.362.6 1.362 1.364v10.484h10.486c.749 0 1.362.613 1.362 1.363 0 .764-.613 1.364-1.362 1.364H61.065c-.75 0-1.362-.6-1.362-1.364V74.113z"/><path fill="#396182" fill-rule="nonzero" d="M62.876 36.934c13.455 0 25.643 5.453 34.454 14.288 8.825 8.82 14.273 21.023 14.273 34.48a48.616 48.616 0 0 1-14.273 34.492c-8.81 8.835-20.999 14.289-34.454 14.289-13.441 0-25.63-5.454-34.44-14.289a48.616 48.616 0 0 1-14.273-34.493c0-13.456 5.447-25.658 14.272-34.48 8.811-8.834 21-14.287 34.441-14.287zm32.534 16.21c-8.32-8.33-19.828-13.484-32.534-13.484-12.692 0-24.2 5.154-32.52 13.484-8.321 8.33-13.47 19.85-13.47 32.557 0 12.72 5.149 24.24 13.47 32.571 8.32 8.33 19.828 13.484 32.52 13.484 12.706 0 24.213-5.154 32.534-13.484 8.321-8.33 13.469-19.85 13.469-32.57 0-12.707-5.148-24.228-13.469-32.558z"/><path fill="#396182" fill-rule="nonzero" d="M62.876 60.765a24.843 24.843 0 0 1 17.622 7.308A24.855 24.855 0 0 1 87.784 85.7a24.887 24.887 0 0 1-24.908 24.936c-6.877 0-13.1-2.795-17.609-7.294a24.887 24.887 0 0 1-7.285-17.642 24.855 24.855 0 0 1 7.285-17.628C49.775 63.56 56 60.765 62.876 60.765zm15.688 9.244a22.094 22.094 0 0 0-15.688-6.503 22.062 22.062 0 0 0-15.675 6.503A22.112 22.112 0 0 0 40.705 85.7a22.144 22.144 0 0 0 6.496 15.706 22.062 22.062 0 0 0 15.675 6.503c6.128 0 11.671-2.48 15.688-6.503a22.144 22.144 0 0 0 6.496-15.706 22.112 22.112 0 0 0-6.496-15.692z"/></g></g><path d="M86.151 2.127l62.168 35.938c4.876 2.822 7.681 7.662 7.681 13.307v71.863c0 5.63-2.805 10.484-7.68 13.306L86.15 172.466c-4.875 2.822-10.459 2.822-15.348 0L8.65 136.54C3.76 133.72.97 128.865.97 123.235V51.372c0-5.645 2.791-10.485 7.68-13.307L70.803 2.127c4.89-2.822 10.473-2.822 15.348 0z" mask="url(#b)"/></g></svg>