<svg
  xmlns="http://www.w3.org/2000/svg"
  width="64"
  height="64"
  viewBox="0 0 128 128"
>
  <g fill="#ff6b6b" fill-rule="evenodd">
    <path
      d="M94.885 41.087c-4.59-5.734-10.557-10.018-17.31-12.457l-1.182 5.668c5.443 2.11 10.296 5.668 14.033 10.348 5.705 7.052 8.263 15.95 7.344 24.98-1.18 11.073-7.54 20.366-16.46 25.64-5.966-3.1-12.654-5.142-19.736-5.933-7.082-.79-14.033-.132-20.525 1.582-7.542-7.053-11.804-17.466-10.624-28.605.984-9.03 5.377-17.203 12.394-22.87 2.95-2.374 6.23-4.22 9.64-5.47l3.212-6.856c-5.967 1.318-11.606 3.955-16.46 7.91-8.196 6.656-13.376 16.147-14.49 26.693-2.296 21.816 13.442 41.457 35.147 43.764 1.44.133 2.82.2 4.26.2 19.936 0 37.116-15.16 39.28-35.527 1.115-10.414-1.902-20.827-8.525-29.066z"
    />
    <path
      class="bot-eyes"
      d="M59.475 61.85c-1.245-1.517-3.475-1.715-5.05-.53l-2.294 1.715c-.917.725-1.114 1.977-.392 2.9.72.923 1.967 1.12 2.885.395l1.967-1.516 1.64 1.846c.393.46.983.725 1.573.725.46 0 .984-.198 1.377-.527.853-.725.984-2.044.197-2.966l-1.902-2.043zM69.64 67.978l1.967-1.516 1.64 1.846c.392.46.983.725 1.573.725.46 0 .983-.198 1.377-.528.852-.725.983-2.043.196-2.966l-1.9-2.176c-1.247-1.515-3.477-1.713-5.05-.527l-2.295 1.714c-.918.726-1.115 1.978-.394 2.9.656 1.055 1.967 1.253 2.885.528z"
    />
    <path
      d="M66.098 32.848l-3.147 9.69c-1.573-.067-3.08-.067-4.655-.067l-.328 3.033c-4.918.132-9.705.79-14.492 2.043l-2.295.593L40 59.343l-4.13-.46-1.116 10.412 4.13.462-.917 8.436 2.1 1.055c6.818 3.492 14.163 5.667 21.835 6.524 2.295.263 4.524.395 6.82.395 5.376 0 10.688-.66 15.868-2.044l2.295-.593.918-8.437 4.13.462 1.116-10.414-4.132-.46 1.18-11.206L88 52.423c-4.393-2.24-8.984-3.954-13.705-5.075l.328-3.032c-1.64-.395-3.344-.725-5.115-1.054l2.69-12.325.786-3.56-3.345.264c-.59.067-1.247.067-1.902.067-.656 0-1.246.066-1.902.066h-.393l4.393-19.378-10.098 21.158-1.77 3.756 4.327-.264c1.312-.132 2.557-.132 3.803-.198zm14.558 45.148c-5.902 1.32-11.935 1.582-17.967.99-6.1-.66-11.936-2.242-17.38-4.746l2.165-20.564c5.902-1.32 11.935-1.582 17.968-.99 6.032.66 11.934 2.242 17.377 4.747l-2.164 20.563z"
    />
  </g>
</svg>
