<svg xmlns="http://www.w3.org/2000/svg" viewBox="0 0 64 48"><path fill="#FFF" fill-rule="evenodd" d="M0 0h64v48H0V0zm50.263 39.75a1.98 1.98 0 0 0 1.987-1.969V10.22a1.98 1.98 0 0 0-1.987-1.969H14.486a1.98 1.98 0 0 0-1.987 1.969V37.78a1.98 1.98 0 0 0 1.988 1.969h35.775zm.662-29.531V37.78c0 .361-.298.657-.662.657H14.486a.661.661 0 0 1-.662-.657V10.22a.66.66 0 0 1 .663-.656h35.775a.66.66 0 0 1 .662.656zM39.663 35.812a.66.66 0 0 0 .662-.656.66.66 0 0 0-.663-.656H25.088a.66.66 0 0 0-.662.656.66.66 0 0 0 .662.657h14.576zm-3.975-3.937h-6.626a.66.66 0 0 0-.662.656.66.66 0 0 0 .663.657h6.625a.66.66 0 0 0 .662-.657.66.66 0 0 0-.663-.656zm-3.313-2.625c4.384 0 7.95-3.533 7.95-7.875 0-4.343-3.566-7.875-7.95-7.875s-7.95 3.532-7.95 7.875c0 4.342 3.566 7.875 7.95 7.875zm0-14.438c3.653 0 6.625 2.944 6.625 6.563 0 3.618-2.972 6.563-6.625 6.563s-6.625-2.945-6.625-6.563c0-3.62 2.972-6.563 6.625-6.563zm-.342 9.893L36.23 18.8a.654.654 0 0 0-.16-.915.668.668 0 0 0-.923.16l-3.753 5.282-1.873-1.77a.666.666 0 0 0-.936.021.651.651 0 0 0 .021.928l2.43 2.297a.662.662 0 0 0 .998-.097z"/></svg>