<svg xmlns="http://www.w3.org/2000/svg" viewBox="0 0 64 48"><path fill="#FFF" fill-rule="evenodd" d="M0 0h64v48H0V0zm48.665 28.374c.971-1.272.636-2.377.054-2.935a1.852 1.852 0 0 0-.231-.179c.254-.829.065-1.613-.526-2.095-.633-.517-1.542-.57-2.472-.188-.245-.387-.574-.676-.974-.819-.706-.253-1.531-.076-2.456.526-1.839 1.193-2.782 2.535-3.138 3.039l-.06.085c-.839.096-1.794.34-2.874.753-.22.083-.924.216-2.036.126l-.31-.12c-1.29-.502-3.692-1.437-7.215-1.115-1.54.138-3.045.589-4.373.986-1.378.411-2.678.794-3.685.712h-3.745a.627.627 0 0 0-.624.63c0 .349.279.63.624.63l3.688-.002c1.189.106 2.6-.316 4.095-.762 1.334-.399 2.715-.81 4.13-.939 3.233-.296 5.458.572 6.654 1.037.151.058.288.112.41.156.052.02.105.03.16.035 1.291.114 2.224-.026 2.667-.195 2.094-.798 3.745-.943 4.53-.394.334.232.502.59.502 1.066 0 .473-.162.874-.97 1.418a7.244 7.244 0 0 1-2.892 1.12c-.502.028-1.07.072-1.713.132-.802.051-1.629.139-2.562.336a.618.618 0 0 0-.313.17c-.01.01-1.04 1.027-2.387 1.298a.629.629 0 0 0-.49.741.623.623 0 0 0 .735.494c1.408-.284 2.497-1.162 2.878-1.504a16.32 16.32 0 0 1 2.08-.268c.026 0 .05 0 .075-.004l.08-.007c.276-.018.55-.03.826-.043.308-.013.617-.044.923-.09 1.613-.09 2.501-.034 2.85-.012.248.016.613.038.804-.32 1.562-2.094 3.18-3.856 4.945-5.384.549-.477 1.208-.446 1.53-.137.403.386.005 1.006-.184 1.254-.558.732-1.318 1.775-2.114 2.868-1.348 1.852-3.386 4.65-3.775 4.943-.552.279-9.79 3.072-12.184 3.072-1.34 0-3.41-.85-5.075-1.534-1.533-.63-2.428-.985-3.037-.985h-6.866a.627.627 0 0 0-.624.63c0 .349.279.63.624.63h6.864c.396 0 1.55.474 2.568.894 1.856.762 3.962 1.625 5.545 1.625 2.64 0 12.088-2.832 12.79-3.23.464-.263 1.449-1.553 4.176-5.299.79-1.084 1.542-2.12 2.098-2.846zm-4.566-5.029c.138.05.242.151.321.268-1.27.94-2.275 1.904-2.875 2.627a3.163 3.163 0 0 0-1.136-.411 9.88 9.88 0 0 1 2.325-2.086c.566-.368 1.051-.511 1.365-.398zm3.077.8c.23.187.193.506.124.734a2.572 2.572 0 0 0-1.784.655 32.537 32.537 0 0 0-2.81 2.753 2.65 2.65 0 0 0-.29-1.132c.492-.613 1.493-1.627 2.894-2.643.842-.611 1.558-.619 1.866-.367zM34.77 22.33c2.472-2.056 5.858-4.87 6.057-8.54.138-2.567-1.363-4.782-3.652-5.387-1.541-.408-3.579-.013-5.05 2.123-1.361-2.127-3.39-2.537-4.97-2.142-2.033.505-3.985 2.529-3.78 5.416.263 3.712 3.611 6.492 6.058 8.52.984.816 1.833 1.52 2.14 2.014a.62.62 0 0 0 .524.296h.004c.212 0 .41-.109.524-.288.315-.492 1.163-1.197 2.145-2.012zm2.09-12.71c1.398.37 2.846 1.81 2.721 4.101-.169 3.117-3.31 5.728-5.605 7.636-.756.628-1.403 1.165-1.87 1.653-.469-.493-1.12-1.033-1.88-1.663-2.27-1.883-5.38-4.465-5.606-7.635-.155-2.194 1.31-3.725 2.834-4.105.275-.067.543-.1.805-.1 1.37 0 2.558.911 3.27 2.56a.625.625 0 0 0 .558.379c.26-.011.468-.132.574-.353.968-1.987 2.538-2.912 4.199-2.472z"/></svg>