<svg xmlns="http://www.w3.org/2000/svg" viewBox="0 0 64 48"><path fill="#FFF" fill-rule="evenodd" d="M0 0h64v48H0V0zm50.9 41c1.158 0 2.1-.953 2.1-2.125V9.125C53 7.953 52.058 7 50.9 7H13.1c-1.158 0-2.1.953-2.1 2.125v29.75c0 1.172.942 2.125 2.1 2.125h37.8zm.7-31.875v29.75a.705.705 0 0 1-.7.708H13.1a.705.705 0 0 1-.7-.708V9.125c0-.391.314-.708.7-.708h37.8c.386 0 .7.317.7.708zm-4.9 20.542c1.158 0 2.1-.953 2.1-2.125v-8.5c0-1.172-.942-2.126-2.1-2.126H17.3c-1.158 0-2.1.954-2.1 2.125v8.5c0 1.173.942 2.126 2.1 2.126h29.4zm.7-10.626v8.5c0 .391-.314.71-.7.71H17.3a.705.705 0 0 1-.7-.71v-8.5c0-.39.314-.708.7-.708h29.4c.386 0 .7.317.7.708zm-28 6.375v1.417h4.2v-1.417h-1.4v-4.25h1.4V19.75h-4.2v1.416h1.4v4.25h-1.4z"/></svg>