<svg xmlns="http://www.w3.org/2000/svg" viewBox="0 0 64 48"><path fill="#FFF" fill-rule="evenodd" d="M0 0h64v48H0V0zm50.488 39.75a2.057 2.057 0 0 0 2.055-2.054v-6.848a2.057 2.057 0 0 0-2.055-2.054h-.684v-1.37a5.485 5.485 0 0 0-5.478-5.478 5.485 5.485 0 0 0-5.478 5.478v1.37h-.685a2.057 2.057 0 0 0-2.054 2.054v6.848c0 1.132.921 2.054 2.054 2.054h12.325zm-2.054-12.326v1.37h-8.217v-1.37a4.112 4.112 0 0 1 4.109-4.108 4.112 4.112 0 0 1 4.108 4.108zm2.74 3.424v6.848a.686.686 0 0 1-.686.684H38.163a.686.686 0 0 1-.685-.684v-6.848c0-.378.308-.685.685-.685h12.325c.377 0 .685.307.685.685zm-6.198 3.938v-.002c.426-.233.72-.68.72-1.198a1.37 1.37 0 0 0-1.37-1.37 1.37 1.37 0 0 0-1.37 1.37c0 .519.294.965.719 1.2-.014.054-.034.11-.034.17v1.37a.685.685 0 1 0 1.37 0v-1.37c0-.06-.021-.116-.035-.17zM16.251 23.315h2.739a.685.685 0 1 0 0-1.37h-2.74a.685.685 0 1 0 0 1.37zm5.478 0h2.739a.685.685 0 1 0 0-1.37h-2.74a.685.685 0 1 0 0 1.37zm7.532 2.054a.685.685 0 0 0-.685-.685H16.251a.685.685 0 1 0 0 1.37h12.325a.685.685 0 0 0 .685-.685zm15.75-4.844a.685.685 0 0 0 .684-.685v-9.536a2.057 2.057 0 0 0-2.054-2.054H13.51a2.057 2.057 0 0 0-2.054 2.054v19.173c0 1.133.922 2.055 2.055 2.055h20.542a.685.685 0 1 0 0-1.37H13.512a.686.686 0 0 1-.685-.685v-11.64h31.499v2.003c0 .378.306.685.684.685zm-4.393-4.058h-2.172l2.74-2.739h2.171l-2.739 2.739zm-4.108 0h-2.172l2.739-2.739h2.172l-2.74 2.739zm-4.109 0H30.23l2.74-2.739h2.171l-2.739 2.739zm-4.108 0H26.12l2.739-2.739h2.172l-2.74 2.739zm-4.109 0h-2.172l2.74-2.739h2.171l-2.739 2.739zm-4.108 0h-2.172l2.739-2.739h2.172l-2.74 2.739zm-4.109 0h-2.172l2.74-2.739h2.171l-2.739 2.739zm-3.14-.967v-1.77h1.77l-1.77 1.77zm31.499-5.194v2.054h-31.5v-2.054c0-.378.31-.685.686-.685H43.64c.376 0 .685.307.685.685zm0 4.392v1.77h-1.771l1.77-1.77z"/></svg>